<?xml version="1.0" encoding="UTF-8"?>
<svg id="Camada_1" xmlns="http://www.w3.org/2000/svg" version="1.1" viewBox="0 0 841.89 595.28">
  <!-- Generator: Adobe Illustrator 30.3.0, SVG Export Plug-In . SVG Version: 2.1.3 Build 182)  -->
  <defs>
    <style>
      .st0 {
        fill: #1a203d;
      }

      .st1 {
        fill: #dbe5ed;
      }

      .st2 {
        fill: #22398e;
      }
    </style>
  </defs>
  <g>
    <path class="st0" d="M-1471.75-333.52v6.68h-25.29v12.48h33.99v6.61h-41.21v-44.78h41.21v6.61h-33.99v12.41h25.29Z"/>
    <path class="st0" d="M-1411.15-314.09c-.97,1.93-2.37,3.47-4.22,4.62-1.84,1.15-4.07,1.72-6.68,1.72h-29.74v-44.78h28.12c2.56,0,4.77.56,6.61,1.69,1.84,1.12,3.25,2.65,4.21,4.59.97,1.93,1.45,4.07,1.45,6.41,0,4.09-1.3,7.15-3.91,9.17,1.71.99,3.07,2.44,4.08,4.35,1.01,1.91,1.52,3.86,1.52,5.83,0,2.34-.48,4.47-1.45,6.41ZM-1423.66-333.52c1.71,0,2.97-.55,3.78-1.65.81-1.1,1.21-2.57,1.21-4.42s-.42-3.25-1.25-4.48c-.83-1.24-2.08-1.85-3.74-1.85h-20.91v12.41h20.91ZM-1422.05-314.36c1.75,0,3.05-.55,3.88-1.65.83-1.1,1.25-2.57,1.25-4.42s-.43-3.37-1.28-4.59c-.85-1.21-2.14-1.82-3.84-1.82h-22.53v12.48h22.53Z"/>
    <path class="st0" d="M-1366.4-333.52v6.68h-25.29v12.48h33.99v6.61h-41.21v-44.78h41.21v6.61h-33.99v12.41h25.29Z"/>
    <path class="st0" d="M-1339.22-341.07v33.32h-7.22v-44.78h6.81l28.06,33.32v-33.32h7.22v44.78h-6.81l-28.06-33.32Z"/>
    <path class="st0" d="M-1250.67-314.36v6.61h-41.21v-44.78h41.21v6.61h-33.99v12.41h25.29v6.68h-25.29v12.48h33.99ZM-1272.79-372.57h5.93l-6.27,8.97h-3.84l4.18-8.97Z"/>
    <path class="st0" d="M-1230.64-314.36h31.16v6.61h-41.21v-6.2l30.28-31.97h-29.41v-6.61h39.52v6.21l-30.35,31.97Z"/>
    <path class="st0" d="M-1155.71-333.52v6.68h-25.29v12.48h33.99v6.61h-41.21v-44.78h41.21v6.61h-33.99v12.41h25.29Z"/>
    <path class="st0" d="M-1128.53-326.84v19.09h-7.22v-44.78h30.69c2.61,0,4.83.58,6.68,1.75,1.84,1.17,3.24,2.73,4.18,4.69.94,1.96,1.42,4.1,1.42,6.44,0,3.42-.91,6.33-2.73,8.73-1.82,2.41-4.51,3.74-8.06,4.01h-.94l11.06,19.15h-8.03l-10.99-19.09h-16.05ZM-1105.06-333.52c1.71,0,2.97-.55,3.78-1.65.81-1.1,1.21-2.57,1.21-4.42s-.42-3.25-1.25-4.48c-.83-1.24-2.08-1.85-3.74-1.85h-23.47v12.41h23.47Z"/>
    <g>
      <path class="st0" d="M-1488.13-374.31v3.13h-11.87v5.86h15.96v3.1h-19.35v-21.02h19.35v3.1h-15.96v5.83h11.87Z"/>
      <path class="st0" d="M-1457.05-363.42c-1.74,1.08-3.87,1.61-6.38,1.61s-4.56-.45-6.52-1.36c-1.96-.91-3.09-2.39-3.39-4.43l-.06-.38h3.39l.06.25c.23.99.97,1.71,2.22,2.15,1.25.44,2.56.66,3.96.66,1.56,0,2.94-.27,4.13-.81,1.19-.54,1.79-1.41,1.79-2.61s-.62-2.04-1.87-2.45c-1.25-.41-2.64-.62-4.18-.62-2.66,0-4.84-.39-6.54-1.16-1.7-.77-2.55-2.33-2.55-4.67,0-2.2.83-3.82,2.49-4.86,1.66-1.04,3.69-1.57,6.1-1.57s4.45.45,6.32,1.36c1.87.91,2.93,2.39,3.18,4.43l.06.35h-3.39l-.06-.22c-.21-.97-.91-1.68-2.09-2.14-1.18-.45-2.44-.68-3.77-.68-1.41,0-2.67.25-3.77.76s-1.65,1.32-1.65,2.44.57,1.87,1.71,2.26c1.14.39,2.41.59,3.8.59,2.79,0,5.09.4,6.9,1.19,1.82.79,2.72,2.4,2.72,4.83,0,2.3-.87,3.99-2.61,5.07Z"/>
      <path class="st0" d="M-1424.58-372.89c-1.01,1.14-2.43,1.71-4.24,1.71h-11.02v8.96h-3.39v-21.02h14.41c1.22,0,2.27.27,3.13.82.87.55,1.52,1.28,1.96,2.2s.66,1.93.66,3.02c0,1.73-.51,3.17-1.52,4.31ZM-1428.83-374.31c.8,0,1.39-.26,1.77-.78.38-.52.57-1.21.57-2.07s-.2-1.52-.59-2.11c-.39-.58-.98-.87-1.76-.87h-11.02v5.83h11.02Z"/>
      <path class="st0" d="M-1397.83-362.22l-2.41-5.45h-9.94l-2.34,5.45h-3.61l9.15-21.18h3.32l9.5,21.18h-3.67ZM-1401.34-370.74l-3.96-8.83-3.7,8.83h7.66Z"/>
      <path class="st0" d="M-1376.26-360.98c.17-.46.27-.74.32-.82-2.03-.06-3.78-.61-5.27-1.65s-2.62-2.37-3.4-4.01c-.78-1.64-1.17-3.38-1.17-5.24s.41-3.72,1.24-5.4c.82-1.68,2.01-3.02,3.56-4.04,1.55-1.01,3.37-1.52,5.46-1.52,1.73,0,3.29.35,4.69,1.06s2.55,1.68,3.47,2.91c.92,1.23,1.56,2.64,1.92,4.23l.06.35h-3.7l-.06-.22c-.38-1.46-1.15-2.66-2.31-3.61-1.16-.95-2.51-1.42-4.05-1.42-1.37,0-2.55.36-3.55,1.09s-1.75,1.67-2.28,2.83c-.53,1.16-.79,2.4-.79,3.7s.26,2.51.78,3.67c.52,1.16,1.28,2.1,2.28,2.82,1,.72,2.19,1.08,3.56,1.08,1.54,0,2.89-.46,4.05-1.39,1.16-.93,1.93-2.13,2.31-3.61l.06-.22h3.7l-.06.35c-.53,2.28-1.59,4.17-3.18,5.67-1.59,1.5-3.57,2.34-5.94,2.53l-.13.44c.72.11,1.26.35,1.63.74.37.39.55.94.55,1.66,0,.87-.27,1.55-.82,2.06-.55.51-1.27.76-2.15.76s-1.68-.23-2.25-.68c-.57-.45-.92-1.11-1.04-1.98l-.03-.19h1.52l.03.13c.13.4.33.69.6.85.27.17.64.25,1.11.25s.8-.09,1.08-.27.41-.46.41-.84c0-.46-.26-.77-.79-.92-.34-.04-.6-.06-.79-.06h-1.04l.09-.19c.19-.49.31-.79.35-.92Z"/>
      <path class="st0" d="M-1353.91-378.1c.82-1.68,2.01-3.02,3.56-4.04,1.55-1.01,3.37-1.52,5.46-1.52s3.95.51,5.51,1.52c1.56,1.01,2.76,2.35,3.58,4.02.82,1.67,1.24,3.47,1.24,5.41s-.41,3.71-1.24,5.37c-.82,1.66-2.02,2.99-3.58,4.01-1.56,1.01-3.4,1.52-5.51,1.52s-3.91-.51-5.46-1.52c-1.55-1.01-2.74-2.35-3.56-4.02-.82-1.67-1.24-3.45-1.24-5.35s.41-3.72,1.24-5.4ZM-1350.71-369.06c.53,1.16,1.29,2.1,2.28,2.82.99.72,2.17,1.08,3.55,1.08s2.57-.35,3.59-1.06,1.8-1.64,2.34-2.8c.54-1.16.81-2.39.81-3.67s-.27-2.58-.81-3.75c-.54-1.17-1.31-2.12-2.33-2.83-1.01-.72-2.22-1.08-3.61-1.08s-2.56.36-3.56,1.08c-1,.72-1.76,1.66-2.28,2.83-.52,1.17-.78,2.41-.78,3.72s.26,2.51.79,3.67Z"/>
    </g>
    <g>
      <path class="st2" d="M-1563.66-311.58c.03,4.06-5.32,5.55-7.39,2.07-2.62-4.4-5.24-8.81-7.81-13.25-3.99-6.89-7.95-13.8-11.88-20.72-.52-.92-.66-2-.38-3.02v-.05c.55-1.95,2.47-3.19,4.47-2.88,6.44,1.01,12.87,2.04,19.31,3.07,1.91.3,3.32,1.94,3.35,3.87.15,10.3.26,20.61.34,30.91Z"/>
      <path class="st0" d="M-1558.01-290.91c-.04-16.87-.13-33.75-.35-50.62-.02-1.79,1.56-3.17,3.33-2.89,7.51,1.16,15.04,2.26,22.58,3.24,1.44.19,2.53,1.41,2.53,2.87v30.66c0,12.67-10.27,22.94-22.94,22.94h-2.23c-1.05,0-2.02-.57-2.53-1.49v-.02c-.25-.43-.38-.91-.38-1.4,0-1.1,0-2.2,0-3.3Z"/>
      <path class="st0" d="M-1565.03-288.02h0c-1.06,1.79-.91,1.53-1.96,3.32h-38.9c-1.35,0-2.33-1.29-1.95-2.59,4.32-15.07,8.66-30.13,12.86-45.23.48-1.74,2.82-2.03,3.72-.46,3.89,6.8,7.8,13.59,11.76,20.35,4.81,8.21,9.9,16.27,14.47,24.62Z"/>
      <path class="st0" d="M-1598.86-346.34l.04.08c.77,1.35.97,2.95.55,4.45-.87,3.16-1.74,6.33-2.62,9.49-3.95,14.25-8.05,28.45-12.13,42.66-.85,2.94-3.53,4.96-6.59,4.96h-11.42c-11.54,0-20.9-9.36-20.9-20.9h0c0-.12.02-.23.07-.34,2.24-5.24,4.79-10.35,7.2-15.52,2.6-5.58,5.18-11.16,7.75-16.75,1.33-2.9,2.67-5.81,4-8.72,2.37-5.17,7.84-8.16,13.47-7.38.47.07.95.13,1.42.2,3.29.46,6.57.93,9.86,1.41,3.92.57,7.35,2.92,9.3,6.36Z"/>
      <path class="st2" d="M-1558.86-368.87c-.26-10.88-.61-21.76-1.07-32.64-.12-2.83,2.14-5.2,4.98-5.2h0c13.82,0,25.03,11.21,25.03,25.03v29.49c0,3.01-2.65,5.34-5.63,4.94-6.27-.85-12.54-1.77-18.79-2.74-2.4-.37-4.18-2.42-4.22-4.85-.08-4.68-.18-9.36-.29-14.04Z"/>
      <path class="st2" d="M-1565.58-401.95c.61,14.43,1.03,28.87,1.31,43.31.01.59.02,1.17.03,1.76.05,2.79-2.44,4.94-5.19,4.5h-.05c-4.74-.77-9.49-1.52-14.23-2.25-2.65-.41-4.35-3.03-3.64-5.61,3.56-12.96,7.12-25.93,10.76-38.86.4-1.43.8-2.87,1.2-4.31.54-1.94,2.3-3.29,4.32-3.29h1c2.41,0,4.38,1.9,4.48,4.31,0,.15.01.3.02.45Z"/>
      <path class="st0" d="M-1609.14-375.92c-1.36-2.39-2.72-4.78-4.08-7.17-1.05-1.85-1.15-4.09-.25-6.02,2.51-5.37,5.04-10.72,7.61-16.06v-.02c.45-.93,1.39-1.52,2.42-1.52h17.32c2.92,0,5.03,2.79,4.24,5.6-.76,2.71-1.52,5.42-2.28,8.13-3.2,11.47-6.35,22.95-9.5,34.43-.36,1.31-1.64,2.15-2.99,1.95l-.38-.06c-.82-.12-1.53-.61-1.94-1.33-3.39-5.98-6.77-11.96-10.17-17.94Z"/>
    </g>
  </g>
  <g>
    <path class="st1" d="M-568.71-333.52v6.68h-25.29v12.48h33.99v6.61h-41.21v-44.78h41.21v6.61h-33.99v12.41h25.29Z"/>
    <path class="st1" d="M-508.11-314.09c-.97,1.93-2.37,3.47-4.22,4.62-1.84,1.15-4.07,1.72-6.68,1.72h-29.74v-44.78h28.12c2.56,0,4.77.56,6.61,1.69,1.84,1.12,3.25,2.65,4.21,4.59.97,1.93,1.45,4.07,1.45,6.41,0,4.09-1.3,7.15-3.91,9.17,1.71.99,3.07,2.44,4.08,4.35,1.01,1.91,1.52,3.86,1.52,5.83,0,2.34-.48,4.47-1.45,6.41ZM-520.62-333.52c1.71,0,2.97-.55,3.78-1.65.81-1.1,1.21-2.57,1.21-4.42s-.42-3.25-1.25-4.48c-.83-1.24-2.08-1.85-3.74-1.85h-20.91v12.41h20.91ZM-519-314.36c1.75,0,3.05-.55,3.88-1.65.83-1.1,1.25-2.57,1.25-4.42s-.43-3.37-1.28-4.59c-.85-1.21-2.14-1.82-3.84-1.82h-22.53v12.48h22.53Z"/>
    <path class="st1" d="M-463.36-333.52v6.68h-25.29v12.48h33.99v6.61h-41.21v-44.78h41.21v6.61h-33.99v12.41h25.29Z"/>
    <path class="st1" d="M-436.18-341.07v33.32h-7.22v-44.78h6.81l28.06,33.32v-33.32h7.22v44.78h-6.81l-28.06-33.32Z"/>
    <path class="st1" d="M-347.62-314.36v6.61h-41.21v-44.78h41.21v6.61h-33.99v12.41h25.29v6.68h-25.29v12.48h33.99ZM-369.74-372.57h5.93l-6.27,8.97h-3.84l4.18-8.97Z"/>
    <path class="st1" d="M-327.59-314.36h31.16v6.61h-41.21v-6.2l30.28-31.97h-29.41v-6.61h39.52v6.21l-30.35,31.97Z"/>
    <path class="st1" d="M-252.66-333.52v6.68h-25.29v12.48h33.99v6.61h-41.21v-44.78h41.21v6.61h-33.99v12.41h25.29Z"/>
    <path class="st1" d="M-225.48-326.84v19.09h-7.22v-44.78h30.69c2.61,0,4.83.58,6.68,1.75,1.84,1.17,3.24,2.73,4.18,4.69.94,1.96,1.42,4.1,1.42,6.44,0,3.42-.91,6.33-2.73,8.73-1.82,2.41-4.51,3.74-8.06,4.01h-.94l11.06,19.15h-8.03l-10.99-19.09h-16.05ZM-202.01-333.52c1.71,0,2.97-.55,3.78-1.65.81-1.1,1.21-2.57,1.21-4.42s-.42-3.25-1.25-4.48c-.83-1.24-2.08-1.85-3.74-1.85h-23.47v12.41h23.47Z"/>
    <g>
      <path class="st1" d="M-585.08-374.31v3.13h-11.87v5.86h15.96v3.1h-19.35v-21.02h19.35v3.1h-15.96v5.83h11.87Z"/>
      <path class="st1" d="M-554.01-363.42c-1.74,1.08-3.87,1.61-6.38,1.61s-4.56-.45-6.52-1.36c-1.96-.91-3.09-2.39-3.39-4.43l-.06-.38h3.39l.06.25c.23.99.97,1.71,2.22,2.15,1.25.44,2.56.66,3.96.66,1.56,0,2.94-.27,4.13-.81,1.19-.54,1.79-1.41,1.79-2.61s-.62-2.04-1.87-2.45c-1.25-.41-2.64-.62-4.18-.62-2.66,0-4.84-.39-6.54-1.16-1.7-.77-2.55-2.33-2.55-4.67,0-2.2.83-3.82,2.49-4.86,1.66-1.04,3.69-1.57,6.1-1.57s4.45.45,6.32,1.36c1.87.91,2.93,2.39,3.18,4.43l.06.35h-3.39l-.06-.22c-.21-.97-.91-1.68-2.09-2.14-1.18-.45-2.44-.68-3.77-.68-1.41,0-2.67.25-3.77.76s-1.65,1.32-1.65,2.44.57,1.87,1.71,2.26c1.14.39,2.41.59,3.8.59,2.79,0,5.09.4,6.9,1.19,1.82.79,2.72,2.4,2.72,4.83,0,2.3-.87,3.99-2.61,5.07Z"/>
      <path class="st1" d="M-521.54-372.89c-1.01,1.14-2.43,1.71-4.24,1.71h-11.02v8.96h-3.39v-21.02h14.41c1.22,0,2.27.27,3.13.82.87.55,1.52,1.28,1.96,2.2s.66,1.93.66,3.02c0,1.73-.51,3.17-1.52,4.31ZM-525.78-374.31c.8,0,1.39-.26,1.77-.78.38-.52.57-1.21.57-2.07s-.2-1.52-.59-2.11c-.39-.58-.98-.87-1.76-.87h-11.02v5.83h11.02Z"/>
      <path class="st1" d="M-494.78-362.22l-2.41-5.45h-9.94l-2.34,5.45h-3.61l9.15-21.18h3.32l9.5,21.18h-3.67ZM-498.3-370.74l-3.96-8.83-3.7,8.83h7.66Z"/>
      <path class="st1" d="M-473.22-360.98c.17-.46.27-.74.32-.82-2.03-.06-3.78-.61-5.27-1.65s-2.62-2.37-3.4-4.01c-.78-1.64-1.17-3.38-1.17-5.24s.41-3.72,1.24-5.4c.82-1.68,2.01-3.02,3.56-4.04,1.55-1.01,3.37-1.52,5.46-1.52,1.73,0,3.29.35,4.69,1.06s2.55,1.68,3.47,2.91c.92,1.23,1.56,2.64,1.92,4.23l.06.35h-3.7l-.06-.22c-.38-1.46-1.15-2.66-2.31-3.61-1.16-.95-2.51-1.42-4.05-1.42-1.37,0-2.55.36-3.55,1.09s-1.75,1.67-2.28,2.83c-.53,1.16-.79,2.4-.79,3.7s.26,2.51.78,3.67c.52,1.16,1.28,2.1,2.28,2.82,1,.72,2.19,1.08,3.56,1.08,1.54,0,2.89-.46,4.05-1.39,1.16-.93,1.93-2.13,2.31-3.61l.06-.22h3.7l-.06.35c-.53,2.28-1.59,4.17-3.18,5.67-1.59,1.5-3.57,2.34-5.94,2.53l-.13.44c.72.11,1.26.35,1.63.74.37.39.55.94.55,1.66,0,.87-.27,1.55-.82,2.06-.55.51-1.27.76-2.15.76s-1.68-.23-2.25-.68c-.57-.45-.92-1.11-1.04-1.98l-.03-.19h1.52l.03.13c.13.4.33.69.6.85.27.17.64.25,1.11.25s.8-.09,1.08-.27.41-.46.41-.84c0-.46-.26-.77-.79-.92-.34-.04-.6-.06-.79-.06h-1.04l.09-.19c.19-.49.31-.79.35-.92Z"/>
      <path class="st1" d="M-450.86-378.1c.82-1.68,2.01-3.02,3.56-4.04,1.55-1.01,3.37-1.52,5.46-1.52s3.95.51,5.51,1.52c1.56,1.01,2.76,2.35,3.58,4.02.82,1.67,1.24,3.47,1.24,5.41s-.41,3.71-1.24,5.37c-.82,1.66-2.02,2.99-3.58,4.01-1.56,1.01-3.4,1.52-5.51,1.52s-3.91-.51-5.46-1.52c-1.55-1.01-2.74-2.35-3.56-4.02-.82-1.67-1.24-3.45-1.24-5.35s.41-3.72,1.24-5.4ZM-447.67-369.06c.53,1.16,1.29,2.1,2.28,2.82.99.72,2.17,1.08,3.55,1.08s2.57-.35,3.59-1.06,1.8-1.64,2.34-2.8c.54-1.16.81-2.39.81-3.67s-.27-2.58-.81-3.75c-.54-1.17-1.31-2.12-2.33-2.83-1.01-.72-2.22-1.08-3.61-1.08s-2.56.36-3.56,1.08c-1,.72-1.76,1.66-2.28,2.83-.52,1.17-.78,2.41-.78,3.72s.26,2.51.79,3.67Z"/>
    </g>
    <g>
      <path class="st1" d="M-660.61-311.58c.03,4.06-5.32,5.55-7.39,2.07-2.62-4.4-5.24-8.81-7.81-13.25-3.99-6.89-7.95-13.8-11.88-20.72-.52-.92-.66-2-.38-3.02v-.05c.55-1.95,2.47-3.19,4.47-2.88,6.44,1.01,12.87,2.04,19.31,3.07,1.91.3,3.32,1.94,3.35,3.87.15,10.3.26,20.61.34,30.91Z"/>
      <path class="st1" d="M-654.96-290.91c-.04-16.87-.13-33.75-.35-50.62-.02-1.79,1.56-3.17,3.33-2.89,7.51,1.16,15.04,2.26,22.58,3.24,1.44.19,2.53,1.41,2.53,2.87v30.66c0,12.67-10.27,22.94-22.94,22.94h-2.23c-1.05,0-2.02-.57-2.53-1.49v-.02c-.25-.43-.38-.91-.38-1.4,0-1.1,0-2.2,0-3.3Z"/>
      <path class="st1" d="M-661.98-288.02h0c-1.06,1.79-.91,1.53-1.96,3.32h-38.9c-1.35,0-2.33-1.29-1.95-2.59,4.32-15.07,8.66-30.13,12.86-45.23.48-1.74,2.82-2.03,3.72-.46,3.89,6.8,7.8,13.59,11.76,20.35,4.81,8.21,9.9,16.27,14.47,24.62Z"/>
      <path class="st1" d="M-695.81-346.34l.04.08c.77,1.35.97,2.95.55,4.45-.87,3.16-1.74,6.33-2.62,9.49-3.95,14.25-8.05,28.45-12.13,42.66-.85,2.94-3.53,4.96-6.59,4.96h-11.42c-11.54,0-20.9-9.36-20.9-20.9h0c0-.12.02-.23.07-.34,2.24-5.24,4.79-10.35,7.2-15.52,2.6-5.58,5.18-11.16,7.75-16.75,1.33-2.9,2.67-5.81,4-8.72,2.37-5.17,7.84-8.16,13.47-7.38.47.07.95.13,1.42.2,3.29.46,6.57.93,9.86,1.41,3.92.57,7.35,2.92,9.3,6.36Z"/>
      <path class="st1" d="M-655.81-368.87c-.26-10.88-.61-21.76-1.07-32.64-.12-2.83,2.14-5.2,4.98-5.2h0c13.82,0,25.03,11.21,25.03,25.03v29.49c0,3.01-2.65,5.34-5.63,4.94-6.27-.85-12.54-1.77-18.79-2.74-2.4-.37-4.18-2.42-4.22-4.85-.08-4.68-.18-9.36-.29-14.04Z"/>
      <path class="st1" d="M-662.53-401.95c.61,14.43,1.03,28.87,1.31,43.31.01.59.02,1.17.03,1.76.05,2.79-2.44,4.94-5.19,4.5h-.05c-4.74-.77-9.49-1.52-14.23-2.25-2.65-.41-4.35-3.03-3.64-5.61,3.56-12.96,7.12-25.93,10.76-38.86.4-1.43.8-2.87,1.2-4.31.54-1.94,2.3-3.29,4.32-3.29h1c2.41,0,4.38,1.9,4.48,4.31,0,.15.01.3.02.45Z"/>
      <path class="st1" d="M-706.1-375.92c-1.36-2.39-2.72-4.78-4.08-7.17-1.05-1.85-1.15-4.09-.25-6.02,2.51-5.37,5.04-10.72,7.61-16.06v-.02c.45-.93,1.39-1.52,2.42-1.52h17.32c2.92,0,5.03,2.79,4.24,5.6-.76,2.71-1.52,5.42-2.28,8.13-3.2,11.47-6.35,22.95-9.5,34.43-.36,1.31-1.64,2.15-2.99,1.95l-.38-.06c-.82-.12-1.53-.61-1.94-1.33-3.39-5.98-6.77-11.96-10.17-17.94Z"/>
    </g>
  </g>
  <g>
    <path class="st2" d="M333.24-333.52v6.68h-25.29v12.48h33.99v6.61h-41.21v-44.78h41.21v6.61h-33.99v12.41h25.29Z"/>
    <path class="st2" d="M393.84-314.09c-.97,1.93-2.37,3.47-4.22,4.62-1.84,1.15-4.07,1.72-6.68,1.72h-29.74v-44.78h28.12c2.56,0,4.77.56,6.61,1.69,1.84,1.12,3.25,2.65,4.21,4.59.97,1.93,1.45,4.07,1.45,6.41,0,4.09-1.3,7.15-3.91,9.17,1.71.99,3.07,2.44,4.08,4.35,1.01,1.91,1.52,3.86,1.52,5.83,0,2.34-.48,4.47-1.45,6.41ZM381.32-333.52c1.71,0,2.97-.55,3.78-1.65.81-1.1,1.21-2.57,1.21-4.42s-.42-3.25-1.25-4.48c-.83-1.24-2.08-1.85-3.74-1.85h-20.91v12.41h20.91ZM382.94-314.36c1.75,0,3.05-.55,3.88-1.65.83-1.1,1.25-2.57,1.25-4.42s-.43-3.37-1.28-4.59c-.85-1.21-2.14-1.82-3.84-1.82h-22.53v12.48h22.53Z"/>
    <path class="st2" d="M438.58-333.52v6.68h-25.29v12.48h33.99v6.61h-41.21v-44.78h41.21v6.61h-33.99v12.41h25.29Z"/>
    <path class="st2" d="M465.76-341.07v33.32h-7.22v-44.78h6.81l28.06,33.32v-33.32h7.22v44.78h-6.81l-28.06-33.32Z"/>
    <path class="st2" d="M554.32-314.36v6.61h-41.21v-44.78h41.21v6.61h-33.99v12.41h25.29v6.68h-25.29v12.48h33.99ZM532.2-372.57h5.93l-6.27,8.97h-3.84l4.18-8.97Z"/>
    <path class="st2" d="M574.35-314.36h31.16v6.61h-41.21v-6.2l30.28-31.97h-29.41v-6.61h39.52v6.21l-30.35,31.97Z"/>
    <path class="st2" d="M649.28-333.52v6.68h-25.29v12.48h33.99v6.61h-41.21v-44.78h41.21v6.61h-33.99v12.41h25.29Z"/>
    <path class="st2" d="M676.46-326.84v19.09h-7.22v-44.78h30.69c2.61,0,4.83.58,6.68,1.75,1.84,1.17,3.24,2.73,4.18,4.69.94,1.96,1.42,4.1,1.42,6.44,0,3.42-.91,6.33-2.73,8.73-1.82,2.41-4.51,3.74-8.06,4.01h-.94l11.06,19.15h-8.03l-10.99-19.09h-16.05ZM699.93-333.52c1.71,0,2.97-.55,3.78-1.65.81-1.1,1.21-2.57,1.21-4.42s-.42-3.25-1.25-4.48c-.83-1.24-2.08-1.85-3.74-1.85h-23.47v12.41h23.47Z"/>
    <g>
      <path class="st2" d="M316.86-374.31v3.13h-11.87v5.86h15.96v3.1h-19.35v-21.02h19.35v3.1h-15.96v5.83h11.87Z"/>
      <path class="st2" d="M347.93-363.42c-1.74,1.08-3.87,1.61-6.38,1.61s-4.56-.45-6.52-1.36c-1.96-.91-3.09-2.39-3.39-4.43l-.06-.38h3.39l.06.25c.23.99.97,1.71,2.22,2.15,1.25.44,2.56.66,3.96.66,1.56,0,2.94-.27,4.13-.81,1.19-.54,1.79-1.41,1.79-2.61s-.62-2.04-1.87-2.45c-1.25-.41-2.64-.62-4.18-.62-2.66,0-4.84-.39-6.54-1.16-1.7-.77-2.55-2.33-2.55-4.67,0-2.2.83-3.82,2.49-4.86,1.66-1.04,3.69-1.57,6.1-1.57s4.45.45,6.32,1.36c1.87.91,2.93,2.39,3.18,4.43l.06.35h-3.39l-.06-.22c-.21-.97-.91-1.68-2.09-2.14-1.18-.45-2.44-.68-3.77-.68-1.41,0-2.67.25-3.77.76s-1.65,1.32-1.65,2.44.57,1.87,1.71,2.26c1.14.39,2.41.59,3.8.59,2.79,0,5.09.4,6.9,1.19,1.82.79,2.72,2.4,2.72,4.83,0,2.3-.87,3.99-2.61,5.07Z"/>
      <path class="st2" d="M380.41-372.89c-1.01,1.14-2.43,1.71-4.24,1.71h-11.02v8.96h-3.39v-21.02h14.41c1.22,0,2.27.27,3.13.82.87.55,1.52,1.28,1.96,2.2s.66,1.93.66,3.02c0,1.73-.51,3.17-1.52,4.31ZM376.16-374.31c.8,0,1.39-.26,1.77-.78.38-.52.57-1.21.57-2.07s-.2-1.52-.59-2.11c-.39-.58-.98-.87-1.76-.87h-11.02v5.83h11.02Z"/>
      <path class="st2" d="M407.16-362.22l-2.41-5.45h-9.94l-2.34,5.45h-3.61l9.15-21.18h3.32l9.5,21.18h-3.67ZM403.65-370.74l-3.96-8.83-3.7,8.83h7.66Z"/>
      <path class="st2" d="M428.72-360.98c.17-.46.27-.74.32-.82-2.03-.06-3.78-.61-5.27-1.65s-2.62-2.37-3.4-4.01c-.78-1.64-1.17-3.38-1.17-5.24s.41-3.72,1.24-5.4c.82-1.68,2.01-3.02,3.56-4.04,1.55-1.01,3.37-1.52,5.46-1.52,1.73,0,3.29.35,4.69,1.06s2.55,1.68,3.47,2.91c.92,1.23,1.56,2.64,1.92,4.23l.06.35h-3.7l-.06-.22c-.38-1.46-1.15-2.66-2.31-3.61-1.16-.95-2.51-1.42-4.05-1.42-1.37,0-2.55.36-3.55,1.09s-1.75,1.67-2.28,2.83c-.53,1.16-.79,2.4-.79,3.7s.26,2.51.78,3.67c.52,1.16,1.28,2.1,2.28,2.82,1,.72,2.19,1.08,3.56,1.08,1.54,0,2.89-.46,4.05-1.39,1.16-.93,1.93-2.13,2.31-3.61l.06-.22h3.7l-.06.35c-.53,2.28-1.59,4.17-3.18,5.67-1.59,1.5-3.57,2.34-5.94,2.53l-.13.44c.72.11,1.26.35,1.63.74.37.39.55.94.55,1.66,0,.87-.27,1.55-.82,2.06-.55.51-1.27.76-2.15.76s-1.68-.23-2.25-.68c-.57-.45-.92-1.11-1.04-1.98l-.03-.19h1.52l.03.13c.13.4.33.69.6.85.27.17.64.25,1.11.25s.8-.09,1.08-.27.41-.46.41-.84c0-.46-.26-.77-.79-.92-.34-.04-.6-.06-.79-.06h-1.04l.09-.19c.19-.49.31-.79.35-.92Z"/>
      <path class="st2" d="M451.08-378.1c.82-1.68,2.01-3.02,3.56-4.04,1.55-1.01,3.37-1.52,5.46-1.52s3.95.51,5.51,1.52c1.56,1.01,2.76,2.35,3.58,4.02.82,1.67,1.24,3.47,1.24,5.41s-.41,3.71-1.24,5.37c-.82,1.66-2.02,2.99-3.58,4.01-1.56,1.01-3.4,1.52-5.51,1.52s-3.91-.51-5.46-1.52c-1.55-1.01-2.74-2.35-3.56-4.02-.82-1.67-1.24-3.45-1.24-5.35s.41-3.72,1.24-5.4ZM454.27-369.06c.53,1.16,1.29,2.1,2.28,2.82.99.72,2.17,1.08,3.55,1.08s2.57-.35,3.59-1.06,1.8-1.64,2.34-2.8c.54-1.16.81-2.39.81-3.67s-.27-2.58-.81-3.75c-.54-1.17-1.31-2.12-2.33-2.83-1.01-.72-2.22-1.08-3.61-1.08s-2.56.36-3.56,1.08c-1,.72-1.76,1.66-2.28,2.83-.52,1.17-.78,2.41-.78,3.72s.26,2.51.79,3.67Z"/>
    </g>
    <g>
      <path class="st2" d="M241.33-311.58c.03,4.06-5.32,5.55-7.39,2.07-2.62-4.4-5.24-8.81-7.81-13.25-3.99-6.89-7.95-13.8-11.88-20.72-.52-.92-.66-2-.38-3.02v-.05c.55-1.95,2.47-3.19,4.47-2.88,6.44,1.01,12.87,2.04,19.31,3.07,1.91.3,3.32,1.94,3.35,3.87.15,10.3.26,20.61.34,30.91Z"/>
      <path class="st2" d="M246.98-290.91c-.04-16.87-.13-33.75-.35-50.62-.02-1.79,1.56-3.17,3.33-2.89,7.51,1.16,15.04,2.26,22.58,3.24,1.44.19,2.53,1.41,2.53,2.87v30.66c0,12.67-10.27,22.94-22.94,22.94h-2.23c-1.05,0-2.02-.57-2.53-1.49v-.02c-.25-.43-.38-.91-.38-1.4,0-1.1,0-2.2,0-3.3Z"/>
      <path class="st2" d="M239.96-288.02h0c-1.06,1.79-.91,1.53-1.96,3.32h-38.9c-1.35,0-2.33-1.29-1.95-2.59,4.32-15.07,8.66-30.13,12.86-45.23.48-1.74,2.82-2.03,3.72-.46,3.89,6.8,7.8,13.59,11.76,20.35,4.81,8.21,9.9,16.27,14.47,24.62Z"/>
      <path class="st2" d="M206.13-346.34l.04.08c.77,1.35.97,2.95.55,4.45-.87,3.16-1.74,6.33-2.62,9.49-3.95,14.25-8.05,28.45-12.13,42.66-.85,2.94-3.53,4.96-6.59,4.96h-11.42c-11.54,0-20.9-9.36-20.9-20.9h0c0-.12.02-.23.07-.34,2.24-5.24,4.79-10.35,7.2-15.52,2.6-5.58,5.18-11.16,7.75-16.75,1.33-2.9,2.67-5.81,4-8.72,2.37-5.17,7.84-8.16,13.47-7.38.47.07.95.13,1.42.2,3.29.46,6.57.93,9.86,1.41,3.92.57,7.35,2.92,9.3,6.36Z"/>
      <path class="st2" d="M246.13-368.87c-.26-10.88-.61-21.76-1.07-32.64-.12-2.83,2.14-5.2,4.98-5.2h0c13.82,0,25.03,11.21,25.03,25.03v29.49c0,3.01-2.65,5.34-5.63,4.94-6.27-.85-12.54-1.77-18.79-2.74-2.4-.37-4.18-2.42-4.22-4.85-.08-4.68-.18-9.36-.29-14.04Z"/>
      <path class="st2" d="M239.41-401.95c.61,14.43,1.03,28.87,1.31,43.31.01.59.02,1.17.03,1.76.05,2.79-2.44,4.94-5.19,4.5h-.05c-4.74-.77-9.49-1.52-14.23-2.25-2.65-.41-4.35-3.03-3.64-5.61,3.56-12.96,7.12-25.93,10.76-38.86.4-1.43.8-2.87,1.2-4.31.54-1.94,2.3-3.29,4.32-3.29h1c2.41,0,4.38,1.9,4.48,4.31,0,.15.01.3.02.45Z"/>
      <path class="st2" d="M195.84-375.92c-1.36-2.39-2.72-4.78-4.08-7.17-1.05-1.85-1.15-4.09-.25-6.02,2.51-5.37,5.04-10.72,7.61-16.06v-.02c.45-.93,1.39-1.52,2.42-1.52h17.32c2.92,0,5.03,2.79,4.24,5.6-.76,2.71-1.52,5.42-2.28,8.13-3.2,11.47-6.35,22.95-9.5,34.43-.36,1.31-1.64,2.15-2.99,1.95l-.38-.06c-.82-.12-1.53-.61-1.94-1.33-3.39-5.98-6.77-11.96-10.17-17.94Z"/>
    </g>
  </g>
  <g>
    <path class="st1" d="M-1471.75,325.13v6.68h-25.29v12.48h33.99v6.61h-41.21v-44.78h41.21v6.61h-33.99v12.41h25.29Z"/>
    <path class="st1" d="M-1411.15,344.56c-.97,1.93-2.37,3.47-4.22,4.62-1.84,1.15-4.07,1.72-6.68,1.72h-29.74v-44.78h28.12c2.56,0,4.77.56,6.61,1.69,1.84,1.12,3.25,2.65,4.21,4.59.97,1.93,1.45,4.07,1.45,6.41,0,4.09-1.3,7.15-3.91,9.17,1.71.99,3.07,2.44,4.08,4.35,1.01,1.91,1.52,3.86,1.52,5.83,0,2.34-.48,4.47-1.45,6.41ZM-1423.66,325.13c1.71,0,2.97-.55,3.78-1.65.81-1.1,1.21-2.57,1.21-4.42s-.42-3.25-1.25-4.48c-.83-1.24-2.08-1.85-3.74-1.85h-20.91v12.41h20.91ZM-1422.05,344.29c1.75,0,3.05-.55,3.88-1.65.83-1.1,1.25-2.57,1.25-4.42s-.43-3.37-1.28-4.59c-.85-1.21-2.14-1.82-3.84-1.82h-22.53v12.48h22.53Z"/>
    <path class="st1" d="M-1366.4,325.13v6.68h-25.29v12.48h33.99v6.61h-41.21v-44.78h41.21v6.61h-33.99v12.41h25.29Z"/>
    <path class="st1" d="M-1339.22,317.58v33.32h-7.22v-44.78h6.81l28.06,33.32v-33.32h7.22v44.78h-6.81l-28.06-33.32Z"/>
    <path class="st1" d="M-1250.67,344.29v6.61h-41.21v-44.78h41.21v6.61h-33.99v12.41h25.29v6.68h-25.29v12.48h33.99ZM-1272.79,286.08h5.93l-6.27,8.97h-3.84l4.18-8.97Z"/>
    <path class="st1" d="M-1230.64,344.29h31.16v6.61h-41.21v-6.2l30.28-31.97h-29.41v-6.61h39.52v6.21l-30.35,31.97Z"/>
    <path class="st1" d="M-1155.71,325.13v6.68h-25.29v12.48h33.99v6.61h-41.21v-44.78h41.21v6.61h-33.99v12.41h25.29Z"/>
    <path class="st1" d="M-1128.53,331.81v19.09h-7.22v-44.78h30.69c2.61,0,4.83.58,6.68,1.75,1.84,1.17,3.24,2.73,4.18,4.69.94,1.96,1.42,4.1,1.42,6.44,0,3.42-.91,6.33-2.73,8.73-1.82,2.41-4.51,3.74-8.06,4.01h-.94l11.06,19.15h-8.03l-10.99-19.09h-16.05ZM-1105.06,325.13c1.71,0,2.97-.55,3.78-1.65.81-1.1,1.21-2.57,1.21-4.42s-.42-3.25-1.25-4.48c-.83-1.24-2.08-1.85-3.74-1.85h-23.47v12.41h23.47Z"/>
    <g>
      <path class="st1" d="M-1488.13,284.34v3.13h-11.87v5.86h15.96v3.1h-19.35v-21.02h19.35v3.1h-15.96v5.83h11.87Z"/>
      <path class="st1" d="M-1457.05,295.23c-1.74,1.08-3.87,1.61-6.38,1.61s-4.56-.45-6.52-1.36c-1.96-.91-3.09-2.39-3.39-4.43l-.06-.38h3.39l.06.25c.23.99.97,1.71,2.22,2.15,1.25.44,2.56.66,3.96.66,1.56,0,2.94-.27,4.13-.81,1.19-.54,1.79-1.41,1.79-2.61s-.62-2.04-1.87-2.45c-1.25-.41-2.64-.62-4.18-.62-2.66,0-4.84-.39-6.54-1.16-1.7-.77-2.55-2.33-2.55-4.67,0-2.2.83-3.82,2.49-4.86,1.66-1.04,3.69-1.57,6.1-1.57s4.45.45,6.32,1.36c1.87.91,2.93,2.39,3.18,4.43l.06.35h-3.39l-.06-.22c-.21-.97-.91-1.68-2.09-2.14-1.18-.45-2.44-.68-3.77-.68-1.41,0-2.67.25-3.77.76s-1.65,1.32-1.65,2.44.57,1.87,1.71,2.26c1.14.39,2.41.59,3.8.59,2.79,0,5.09.4,6.9,1.19,1.82.79,2.72,2.4,2.72,4.83,0,2.3-.87,3.99-2.61,5.07Z"/>
      <path class="st1" d="M-1424.58,285.76c-1.01,1.14-2.43,1.71-4.24,1.71h-11.02v8.96h-3.39v-21.02h14.41c1.22,0,2.27.27,3.13.82.87.55,1.52,1.28,1.96,2.2s.66,1.93.66,3.02c0,1.73-.51,3.17-1.52,4.31ZM-1428.83,284.34c.8,0,1.39-.26,1.77-.78.38-.52.57-1.21.57-2.07s-.2-1.52-.59-2.11c-.39-.58-.98-.87-1.76-.87h-11.02v5.83h11.02Z"/>
      <path class="st1" d="M-1397.83,296.43l-2.41-5.45h-9.94l-2.34,5.45h-3.61l9.15-21.18h3.32l9.5,21.18h-3.67ZM-1401.34,287.92l-3.96-8.83-3.7,8.83h7.66Z"/>
      <path class="st1" d="M-1376.26,297.67c.17-.46.27-.74.32-.82-2.03-.06-3.78-.61-5.27-1.65s-2.62-2.37-3.4-4.01c-.78-1.64-1.17-3.38-1.17-5.24s.41-3.72,1.24-5.4c.82-1.68,2.01-3.02,3.56-4.04,1.55-1.01,3.37-1.52,5.46-1.52,1.73,0,3.29.35,4.69,1.06s2.55,1.68,3.47,2.91c.92,1.23,1.56,2.64,1.92,4.23l.06.35h-3.7l-.06-.22c-.38-1.46-1.15-2.66-2.31-3.61-1.16-.95-2.51-1.42-4.05-1.42-1.37,0-2.55.36-3.55,1.09s-1.75,1.67-2.28,2.83c-.53,1.16-.79,2.4-.79,3.7s.26,2.51.78,3.67c.52,1.16,1.28,2.1,2.28,2.82,1,.72,2.19,1.08,3.56,1.08,1.54,0,2.89-.46,4.05-1.39,1.16-.93,1.93-2.13,2.31-3.61l.06-.22h3.7l-.06.35c-.53,2.28-1.59,4.17-3.18,5.67-1.59,1.5-3.57,2.34-5.94,2.53l-.13.44c.72.11,1.26.35,1.63.74.37.39.55.94.55,1.66,0,.87-.27,1.55-.82,2.06-.55.51-1.27.76-2.15.76s-1.68-.23-2.25-.68c-.57-.45-.92-1.11-1.04-1.98l-.03-.19h1.52l.03.13c.13.4.33.69.6.85.27.17.64.25,1.11.25s.8-.09,1.08-.27.41-.46.41-.84c0-.46-.26-.77-.79-.92-.34-.04-.6-.06-.79-.06h-1.04l.09-.19c.19-.49.31-.79.35-.92Z"/>
      <path class="st1" d="M-1353.91,280.55c.82-1.68,2.01-3.02,3.56-4.04,1.55-1.01,3.37-1.52,5.46-1.52s3.95.51,5.51,1.52c1.56,1.01,2.76,2.35,3.58,4.02.82,1.67,1.24,3.47,1.24,5.41s-.41,3.71-1.24,5.37c-.82,1.66-2.02,2.99-3.58,4.01-1.56,1.01-3.4,1.52-5.51,1.52s-3.91-.51-5.46-1.52c-1.55-1.01-2.74-2.35-3.56-4.02-.82-1.67-1.24-3.45-1.24-5.35s.41-3.72,1.24-5.4ZM-1350.71,289.59c.53,1.16,1.29,2.1,2.28,2.82.99.72,2.17,1.08,3.55,1.08s2.57-.35,3.59-1.06,1.8-1.64,2.34-2.8c.54-1.16.81-2.39.81-3.67s-.27-2.58-.81-3.75c-.54-1.17-1.31-2.12-2.33-2.83-1.01-.72-2.22-1.08-3.61-1.08s-2.56.36-3.56,1.08c-1,.72-1.76,1.66-2.28,2.83-.52,1.17-.78,2.41-.78,3.72s.26,2.51.79,3.67Z"/>
    </g>
    <g>
      <path class="st1" d="M-1563.66,347.07c.03,4.06-5.32,5.55-7.39,2.07-2.62-4.4-5.24-8.81-7.81-13.25-3.99-6.89-7.95-13.8-11.88-20.72-.52-.92-.66-2-.38-3.02v-.05c.55-1.95,2.47-3.19,4.47-2.88,6.44,1.01,12.87,2.04,19.31,3.07,1.91.3,3.32,1.94,3.35,3.87.15,10.3.26,20.61.34,30.91Z"/>
      <path class="st1" d="M-1558.01,367.75c-.04-16.87-.13-33.75-.35-50.62-.02-1.79,1.56-3.17,3.33-2.89,7.51,1.16,15.04,2.26,22.58,3.24,1.44.19,2.53,1.41,2.53,2.87v30.66c0,12.67-10.27,22.94-22.94,22.94h-2.23c-1.05,0-2.02-.57-2.53-1.49v-.02c-.25-.43-.38-.91-.38-1.4,0-1.1,0-2.2,0-3.3Z"/>
      <path class="st1" d="M-1565.03,370.63h0c-1.06,1.79-.91,1.53-1.96,3.32h-38.9c-1.35,0-2.33-1.29-1.95-2.59,4.32-15.07,8.66-30.13,12.86-45.23.48-1.74,2.82-2.03,3.72-.46,3.89,6.8,7.8,13.59,11.76,20.35,4.81,8.21,9.9,16.27,14.47,24.62Z"/>
      <path class="st1" d="M-1598.86,312.31l.04.08c.77,1.35.97,2.95.55,4.45-.87,3.16-1.74,6.33-2.62,9.49-3.95,14.25-8.05,28.45-12.13,42.66-.85,2.94-3.53,4.96-6.59,4.96h-11.42c-11.54,0-20.9-9.36-20.9-20.9h0c0-.12.02-.23.07-.34,2.24-5.24,4.79-10.35,7.2-15.52,2.6-5.58,5.18-11.16,7.75-16.75,1.33-2.9,2.67-5.81,4-8.72,2.37-5.17,7.84-8.16,13.47-7.38.47.07.95.13,1.42.2,3.29.46,6.57.93,9.86,1.41,3.92.57,7.35,2.92,9.3,6.36Z"/>
      <path class="st1" d="M-1558.86,289.78c-.26-10.88-.61-21.76-1.07-32.64-.12-2.83,2.14-5.2,4.98-5.2h0c13.82,0,25.03,11.21,25.03,25.03v29.49c0,3.01-2.65,5.34-5.63,4.94-6.27-.85-12.54-1.77-18.79-2.74-2.4-.37-4.18-2.42-4.22-4.85-.08-4.68-.18-9.36-.29-14.04Z"/>
      <path class="st1" d="M-1565.58,256.71c.61,14.43,1.03,28.87,1.31,43.31.01.59.02,1.17.03,1.76.05,2.79-2.44,4.94-5.19,4.5h-.05c-4.74-.77-9.49-1.52-14.23-2.25-2.65-.41-4.35-3.03-3.64-5.61,3.56-12.96,7.12-25.93,10.76-38.86.4-1.43.8-2.87,1.2-4.31.54-1.94,2.3-3.29,4.32-3.29h1c2.41,0,4.38,1.9,4.48,4.31,0,.15.01.3.02.45Z"/>
      <path class="st1" d="M-1609.14,282.73c-1.36-2.39-2.72-4.78-4.08-7.17-1.05-1.85-1.15-4.09-.25-6.02,2.51-5.37,5.04-10.72,7.61-16.06v-.02c.45-.93,1.39-1.52,2.42-1.52h17.32c2.92,0,5.03,2.79,4.24,5.6-.76,2.71-1.52,5.42-2.28,8.13-3.2,11.47-6.35,22.95-9.5,34.43-.36,1.31-1.64,2.15-2.99,1.95l-.38-.06c-.82-.12-1.53-.61-1.94-1.33-3.39-5.98-6.77-11.96-10.17-17.94Z"/>
    </g>
  </g>
  <g>
    <path class="st1" d="M-568.71,325.13v6.68h-25.29v12.48h33.99v6.61h-41.21v-44.78h41.21v6.61h-33.99v12.41h25.29Z"/>
    <path class="st1" d="M-508.11,344.56c-.97,1.93-2.37,3.47-4.22,4.62-1.84,1.15-4.07,1.72-6.68,1.72h-29.74v-44.78h28.12c2.56,0,4.77.56,6.61,1.69,1.84,1.12,3.25,2.65,4.21,4.59.97,1.93,1.45,4.07,1.45,6.41,0,4.09-1.3,7.15-3.91,9.17,1.71.99,3.07,2.44,4.08,4.35,1.01,1.91,1.52,3.86,1.52,5.83,0,2.34-.48,4.47-1.45,6.41ZM-520.62,325.13c1.71,0,2.97-.55,3.78-1.65.81-1.1,1.21-2.57,1.21-4.42s-.42-3.25-1.25-4.48c-.83-1.24-2.08-1.85-3.74-1.85h-20.91v12.41h20.91ZM-519,344.29c1.75,0,3.05-.55,3.88-1.65.83-1.1,1.25-2.57,1.25-4.42s-.43-3.37-1.28-4.59c-.85-1.21-2.14-1.82-3.84-1.82h-22.53v12.48h22.53Z"/>
    <path class="st1" d="M-463.36,325.13v6.68h-25.29v12.48h33.99v6.61h-41.21v-44.78h41.21v6.61h-33.99v12.41h25.29Z"/>
    <path class="st1" d="M-436.18,317.58v33.32h-7.22v-44.78h6.81l28.06,33.32v-33.32h7.22v44.78h-6.81l-28.06-33.32Z"/>
    <path class="st1" d="M-347.62,344.29v6.61h-41.21v-44.78h41.21v6.61h-33.99v12.41h25.29v6.68h-25.29v12.48h33.99ZM-369.74,286.08h5.93l-6.27,8.97h-3.84l4.18-8.97Z"/>
    <path class="st1" d="M-327.59,344.29h31.16v6.61h-41.21v-6.2l30.28-31.97h-29.41v-6.61h39.52v6.21l-30.35,31.97Z"/>
    <path class="st1" d="M-252.66,325.13v6.68h-25.29v12.48h33.99v6.61h-41.21v-44.78h41.21v6.61h-33.99v12.41h25.29Z"/>
    <path class="st1" d="M-225.48,331.81v19.09h-7.22v-44.78h30.69c2.61,0,4.83.58,6.68,1.75,1.84,1.17,3.24,2.73,4.18,4.69.94,1.96,1.42,4.1,1.42,6.44,0,3.42-.91,6.33-2.73,8.73-1.82,2.41-4.51,3.74-8.06,4.01h-.94l11.06,19.15h-8.03l-10.99-19.09h-16.05ZM-202.01,325.13c1.71,0,2.97-.55,3.78-1.65.81-1.1,1.21-2.57,1.21-4.42s-.42-3.25-1.25-4.48c-.83-1.24-2.08-1.85-3.74-1.85h-23.47v12.41h23.47Z"/>
    <g>
      <path class="st1" d="M-585.08,284.34v3.13h-11.87v5.86h15.96v3.1h-19.35v-21.02h19.35v3.1h-15.96v5.83h11.87Z"/>
      <path class="st1" d="M-554.01,295.23c-1.74,1.08-3.87,1.61-6.38,1.61s-4.56-.45-6.52-1.36c-1.96-.91-3.09-2.39-3.39-4.43l-.06-.38h3.39l.06.25c.23.99.97,1.71,2.22,2.15,1.25.44,2.56.66,3.96.66,1.56,0,2.94-.27,4.13-.81,1.19-.54,1.79-1.41,1.79-2.61s-.62-2.04-1.87-2.45c-1.25-.41-2.64-.62-4.18-.62-2.66,0-4.84-.39-6.54-1.16-1.7-.77-2.55-2.33-2.55-4.67,0-2.2.83-3.82,2.49-4.86,1.66-1.04,3.69-1.57,6.1-1.57s4.45.45,6.32,1.36c1.87.91,2.93,2.39,3.18,4.43l.06.35h-3.39l-.06-.22c-.21-.97-.91-1.68-2.09-2.14-1.18-.45-2.44-.68-3.77-.68-1.41,0-2.67.25-3.77.76s-1.65,1.32-1.65,2.44.57,1.87,1.71,2.26c1.14.39,2.41.59,3.8.59,2.79,0,5.09.4,6.9,1.19,1.82.79,2.72,2.4,2.72,4.83,0,2.3-.87,3.99-2.61,5.07Z"/>
      <path class="st1" d="M-521.54,285.76c-1.01,1.14-2.43,1.71-4.24,1.71h-11.02v8.96h-3.39v-21.02h14.41c1.22,0,2.27.27,3.13.82.87.55,1.52,1.28,1.96,2.2s.66,1.93.66,3.02c0,1.73-.51,3.17-1.52,4.31ZM-525.78,284.34c.8,0,1.39-.26,1.77-.78.38-.52.57-1.21.57-2.07s-.2-1.52-.59-2.11c-.39-.58-.98-.87-1.76-.87h-11.02v5.83h11.02Z"/>
      <path class="st1" d="M-494.78,296.43l-2.41-5.45h-9.94l-2.34,5.45h-3.61l9.15-21.18h3.32l9.5,21.18h-3.67ZM-498.3,287.92l-3.96-8.83-3.7,8.83h7.66Z"/>
      <path class="st1" d="M-473.22,297.67c.17-.46.27-.74.32-.82-2.03-.06-3.78-.61-5.27-1.65s-2.62-2.37-3.4-4.01c-.78-1.64-1.17-3.38-1.17-5.24s.41-3.72,1.24-5.4c.82-1.68,2.01-3.02,3.56-4.04,1.55-1.01,3.37-1.52,5.46-1.52,1.73,0,3.29.35,4.69,1.06s2.55,1.68,3.47,2.91c.92,1.23,1.56,2.64,1.92,4.23l.06.35h-3.7l-.06-.22c-.38-1.46-1.15-2.66-2.31-3.61-1.16-.95-2.51-1.42-4.05-1.42-1.37,0-2.55.36-3.55,1.09s-1.75,1.67-2.28,2.83c-.53,1.16-.79,2.4-.79,3.7s.26,2.51.78,3.67c.52,1.16,1.28,2.1,2.28,2.82,1,.72,2.19,1.08,3.56,1.08,1.54,0,2.89-.46,4.05-1.39,1.16-.93,1.93-2.13,2.31-3.61l.06-.22h3.7l-.06.35c-.53,2.28-1.59,4.17-3.18,5.67-1.59,1.5-3.57,2.34-5.94,2.53l-.13.44c.72.11,1.26.35,1.63.74.37.39.55.94.55,1.66,0,.87-.27,1.55-.82,2.06-.55.51-1.27.76-2.15.76s-1.68-.23-2.25-.68c-.57-.45-.92-1.11-1.04-1.98l-.03-.19h1.52l.03.13c.13.4.33.69.6.85.27.17.64.25,1.11.25s.8-.09,1.08-.27.41-.46.41-.84c0-.46-.26-.77-.79-.92-.34-.04-.6-.06-.79-.06h-1.04l.09-.19c.19-.49.31-.79.35-.92Z"/>
      <path class="st1" d="M-450.86,280.55c.82-1.68,2.01-3.02,3.56-4.04,1.55-1.01,3.37-1.52,5.46-1.52s3.95.51,5.51,1.52c1.56,1.01,2.76,2.35,3.58,4.02.82,1.67,1.24,3.47,1.24,5.41s-.41,3.71-1.24,5.37c-.82,1.66-2.02,2.99-3.58,4.01-1.56,1.01-3.4,1.52-5.51,1.52s-3.91-.51-5.46-1.52c-1.55-1.01-2.74-2.35-3.56-4.02-.82-1.67-1.24-3.45-1.24-5.35s.41-3.72,1.24-5.4ZM-447.67,289.59c.53,1.16,1.29,2.1,2.28,2.82.99.72,2.17,1.08,3.55,1.08s2.57-.35,3.59-1.06,1.8-1.64,2.34-2.8c.54-1.16.81-2.39.81-3.67s-.27-2.58-.81-3.75c-.54-1.17-1.31-2.12-2.33-2.83-1.01-.72-2.22-1.08-3.61-1.08s-2.56.36-3.56,1.08c-1,.72-1.76,1.66-2.28,2.83-.52,1.17-.78,2.41-.78,3.72s.26,2.51.79,3.67Z"/>
    </g>
    <g>
      <path class="st1" d="M-660.61,347.07c.03,4.06-5.32,5.55-7.39,2.07-2.62-4.4-5.24-8.81-7.81-13.25-3.99-6.89-7.95-13.8-11.88-20.72-.52-.92-.66-2-.38-3.02v-.05c.55-1.95,2.47-3.19,4.47-2.88,6.44,1.01,12.87,2.04,19.31,3.07,1.91.3,3.32,1.94,3.35,3.87.15,10.3.26,20.61.34,30.91Z"/>
      <path class="st1" d="M-654.96,367.75c-.04-16.87-.13-33.75-.35-50.62-.02-1.79,1.56-3.17,3.33-2.89,7.51,1.16,15.04,2.26,22.58,3.24,1.44.19,2.53,1.41,2.53,2.87v30.66c0,12.67-10.27,22.94-22.94,22.94h-2.23c-1.05,0-2.02-.57-2.53-1.49v-.02c-.25-.43-.38-.91-.38-1.4,0-1.1,0-2.2,0-3.3Z"/>
      <path class="st1" d="M-661.98,370.63h0c-1.06,1.79-.91,1.53-1.96,3.32h-38.9c-1.35,0-2.33-1.29-1.95-2.59,4.32-15.07,8.66-30.13,12.86-45.23.48-1.74,2.82-2.03,3.72-.46,3.89,6.8,7.8,13.59,11.76,20.35,4.81,8.21,9.9,16.27,14.47,24.62Z"/>
      <path class="st1" d="M-695.81,312.31l.04.08c.77,1.35.97,2.95.55,4.45-.87,3.16-1.74,6.33-2.62,9.49-3.95,14.25-8.05,28.45-12.13,42.66-.85,2.94-3.53,4.96-6.59,4.96h-11.42c-11.54,0-20.9-9.36-20.9-20.9h0c0-.12.02-.23.07-.34,2.24-5.24,4.79-10.35,7.2-15.52,2.6-5.58,5.18-11.16,7.75-16.75,1.33-2.9,2.67-5.81,4-8.72,2.37-5.17,7.84-8.16,13.47-7.38.47.07.95.13,1.42.2,3.29.46,6.57.93,9.86,1.41,3.92.57,7.35,2.92,9.3,6.36Z"/>
      <path class="st1" d="M-655.81,289.78c-.26-10.88-.61-21.76-1.07-32.64-.12-2.83,2.14-5.2,4.98-5.2h0c13.82,0,25.03,11.21,25.03,25.03v29.49c0,3.01-2.65,5.34-5.63,4.94-6.27-.85-12.54-1.77-18.79-2.74-2.4-.37-4.18-2.42-4.22-4.85-.08-4.68-.18-9.36-.29-14.04Z"/>
      <path class="st1" d="M-662.53,256.71c.61,14.43,1.03,28.87,1.31,43.31.01.59.02,1.17.03,1.76.05,2.79-2.44,4.94-5.19,4.5h-.05c-4.74-.77-9.49-1.52-14.23-2.25-2.65-.41-4.35-3.03-3.64-5.61,3.56-12.96,7.12-25.93,10.76-38.86.4-1.43.8-2.87,1.2-4.31.54-1.94,2.3-3.29,4.32-3.29h1c2.41,0,4.38,1.9,4.48,4.31,0,.15.01.3.02.45Z"/>
      <path class="st1" d="M-706.1,282.73c-1.36-2.39-2.72-4.78-4.08-7.17-1.05-1.85-1.15-4.09-.25-6.02,2.51-5.37,5.04-10.72,7.61-16.06v-.02c.45-.93,1.39-1.52,2.42-1.52h17.32c2.92,0,5.03,2.79,4.24,5.6-.76,2.71-1.52,5.42-2.28,8.13-3.2,11.47-6.35,22.95-9.5,34.43-.36,1.31-1.64,2.15-2.99,1.95l-.38-.06c-.82-.12-1.53-.61-1.94-1.33-3.39-5.98-6.77-11.96-10.17-17.94Z"/>
    </g>
  </g>
  <g>
    <path d="M333.24,325.13v6.68h-25.29v12.48h33.99v6.61h-41.21v-44.78h41.21v6.61h-33.99v12.41h25.29Z"/>
    <path d="M393.84,344.56c-.97,1.93-2.37,3.47-4.22,4.62-1.84,1.15-4.07,1.72-6.68,1.72h-29.74v-44.78h28.12c2.56,0,4.77.56,6.61,1.69,1.84,1.12,3.25,2.65,4.21,4.59.97,1.93,1.45,4.07,1.45,6.41,0,4.09-1.3,7.15-3.91,9.17,1.71.99,3.07,2.44,4.08,4.35,1.01,1.91,1.52,3.86,1.52,5.83,0,2.34-.48,4.47-1.45,6.41ZM381.32,325.13c1.71,0,2.97-.55,3.78-1.65.81-1.1,1.21-2.57,1.21-4.42s-.42-3.25-1.25-4.48c-.83-1.24-2.08-1.85-3.74-1.85h-20.91v12.41h20.91ZM382.94,344.29c1.75,0,3.05-.55,3.88-1.65.83-1.1,1.25-2.57,1.25-4.42s-.43-3.37-1.28-4.59c-.85-1.21-2.14-1.82-3.84-1.82h-22.53v12.48h22.53Z"/>
    <path d="M438.58,325.13v6.68h-25.29v12.48h33.99v6.61h-41.21v-44.78h41.21v6.61h-33.99v12.41h25.29Z"/>
    <path d="M465.76,317.58v33.32h-7.22v-44.78h6.81l28.06,33.32v-33.32h7.22v44.78h-6.81l-28.06-33.32Z"/>
    <path d="M554.32,344.29v6.61h-41.21v-44.78h41.21v6.61h-33.99v12.41h25.29v6.68h-25.29v12.48h33.99ZM532.2,286.08h5.93l-6.27,8.97h-3.84l4.18-8.97Z"/>
    <path d="M574.35,344.29h31.16v6.61h-41.21v-6.2l30.28-31.97h-29.41v-6.61h39.52v6.21l-30.35,31.97Z"/>
    <path d="M649.28,325.13v6.68h-25.29v12.48h33.99v6.61h-41.21v-44.78h41.21v6.61h-33.99v12.41h25.29Z"/>
    <path d="M676.46,331.81v19.09h-7.22v-44.78h30.69c2.61,0,4.83.58,6.68,1.75,1.84,1.17,3.24,2.73,4.18,4.69.94,1.96,1.42,4.1,1.42,6.44,0,3.42-.91,6.33-2.73,8.73-1.82,2.41-4.51,3.74-8.06,4.01h-.94l11.06,19.15h-8.03l-10.99-19.09h-16.05ZM699.93,325.13c1.71,0,2.97-.55,3.78-1.65.81-1.1,1.21-2.57,1.21-4.42s-.42-3.25-1.25-4.48c-.83-1.24-2.08-1.85-3.74-1.85h-23.47v12.41h23.47Z"/>
    <g>
      <path d="M316.86,284.34v3.13h-11.87v5.86h15.96v3.1h-19.35v-21.02h19.35v3.1h-15.96v5.83h11.87Z"/>
      <path d="M347.93,295.23c-1.74,1.08-3.87,1.61-6.38,1.61s-4.56-.45-6.52-1.36c-1.96-.91-3.09-2.39-3.39-4.43l-.06-.38h3.39l.06.25c.23.99.97,1.71,2.22,2.15,1.25.44,2.56.66,3.96.66,1.56,0,2.94-.27,4.13-.81,1.19-.54,1.79-1.41,1.79-2.61s-.62-2.04-1.87-2.45c-1.25-.41-2.64-.62-4.18-.62-2.66,0-4.84-.39-6.54-1.16-1.7-.77-2.55-2.33-2.55-4.67,0-2.2.83-3.82,2.49-4.86,1.66-1.04,3.69-1.57,6.1-1.57s4.45.45,6.32,1.36c1.87.91,2.93,2.39,3.18,4.43l.06.35h-3.39l-.06-.22c-.21-.97-.91-1.68-2.09-2.14-1.18-.45-2.44-.68-3.77-.68-1.41,0-2.67.25-3.77.76s-1.65,1.32-1.65,2.44.57,1.87,1.71,2.26c1.14.39,2.41.59,3.8.59,2.79,0,5.09.4,6.9,1.19,1.82.79,2.72,2.4,2.72,4.83,0,2.3-.87,3.99-2.61,5.07Z"/>
      <path d="M380.41,285.76c-1.01,1.14-2.43,1.71-4.24,1.71h-11.02v8.96h-3.39v-21.02h14.41c1.22,0,2.27.27,3.13.82.87.55,1.52,1.28,1.96,2.2s.66,1.93.66,3.02c0,1.73-.51,3.17-1.52,4.31ZM376.16,284.34c.8,0,1.39-.26,1.77-.78.38-.52.57-1.21.57-2.07s-.2-1.52-.59-2.11c-.39-.58-.98-.87-1.76-.87h-11.02v5.83h11.02Z"/>
      <path d="M407.16,296.43l-2.41-5.45h-9.94l-2.34,5.45h-3.61l9.15-21.18h3.32l9.5,21.18h-3.67ZM403.65,287.92l-3.96-8.83-3.7,8.83h7.66Z"/>
      <path d="M428.72,297.67c.17-.46.27-.74.32-.82-2.03-.06-3.78-.61-5.27-1.65s-2.62-2.37-3.4-4.01c-.78-1.64-1.17-3.38-1.17-5.24s.41-3.72,1.24-5.4c.82-1.68,2.01-3.02,3.56-4.04,1.55-1.01,3.37-1.52,5.46-1.52,1.73,0,3.29.35,4.69,1.06s2.55,1.68,3.47,2.91c.92,1.23,1.56,2.64,1.92,4.23l.06.35h-3.7l-.06-.22c-.38-1.46-1.15-2.66-2.31-3.61-1.16-.95-2.51-1.42-4.05-1.42-1.37,0-2.55.36-3.55,1.09s-1.75,1.67-2.28,2.83c-.53,1.16-.79,2.4-.79,3.7s.26,2.51.78,3.67c.52,1.16,1.28,2.1,2.28,2.82,1,.72,2.19,1.08,3.56,1.08,1.54,0,2.89-.46,4.05-1.39,1.16-.93,1.93-2.13,2.31-3.61l.06-.22h3.7l-.06.35c-.53,2.28-1.59,4.17-3.18,5.67-1.59,1.5-3.57,2.34-5.94,2.53l-.13.44c.72.11,1.26.35,1.63.74.37.39.55.94.55,1.66,0,.87-.27,1.55-.82,2.06-.55.51-1.27.76-2.15.76s-1.68-.23-2.25-.68c-.57-.45-.92-1.11-1.04-1.98l-.03-.19h1.52l.03.13c.13.4.33.69.6.85.27.17.64.25,1.11.25s.8-.09,1.08-.27.41-.46.41-.84c0-.46-.26-.77-.79-.92-.34-.04-.6-.06-.79-.06h-1.04l.09-.19c.19-.49.31-.79.35-.92Z"/>
      <path d="M451.08,280.55c.82-1.68,2.01-3.02,3.56-4.04,1.55-1.01,3.37-1.52,5.46-1.52s3.95.51,5.51,1.52c1.56,1.01,2.76,2.35,3.58,4.02.82,1.67,1.24,3.47,1.24,5.41s-.41,3.71-1.24,5.37c-.82,1.66-2.02,2.99-3.58,4.01-1.56,1.01-3.4,1.52-5.51,1.52s-3.91-.51-5.46-1.52c-1.55-1.01-2.74-2.35-3.56-4.02-.82-1.67-1.24-3.45-1.24-5.35s.41-3.72,1.24-5.4ZM454.27,289.59c.53,1.16,1.29,2.1,2.28,2.82.99.72,2.17,1.08,3.55,1.08s2.57-.35,3.59-1.06,1.8-1.64,2.34-2.8c.54-1.16.81-2.39.81-3.67s-.27-2.58-.81-3.75c-.54-1.17-1.31-2.12-2.33-2.83-1.01-.72-2.22-1.08-3.61-1.08s-2.56.36-3.56,1.08c-1,.72-1.76,1.66-2.28,2.83-.52,1.17-.78,2.41-.78,3.72s.26,2.51.79,3.67Z"/>
    </g>
    <g>
      <path d="M241.33,347.07c.03,4.06-5.32,5.55-7.39,2.07-2.62-4.4-5.24-8.81-7.81-13.25-3.99-6.89-7.95-13.8-11.88-20.72-.52-.92-.66-2-.38-3.02v-.05c.55-1.95,2.47-3.19,4.47-2.88,6.44,1.01,12.87,2.04,19.31,3.07,1.91.3,3.32,1.94,3.35,3.87.15,10.3.26,20.61.34,30.91Z"/>
      <path d="M246.98,367.75c-.04-16.87-.13-33.75-.35-50.62-.02-1.79,1.56-3.17,3.33-2.89,7.51,1.16,15.04,2.26,22.58,3.24,1.44.19,2.53,1.41,2.53,2.87v30.66c0,12.67-10.27,22.94-22.94,22.94h-2.23c-1.05,0-2.02-.57-2.53-1.49v-.02c-.25-.43-.38-.91-.38-1.4,0-1.1,0-2.2,0-3.3Z"/>
      <path d="M239.96,370.63h0c-1.06,1.79-.91,1.53-1.96,3.32h-38.9c-1.35,0-2.33-1.29-1.95-2.59,4.32-15.07,8.66-30.13,12.86-45.23.48-1.74,2.82-2.03,3.72-.46,3.89,6.8,7.8,13.59,11.76,20.35,4.81,8.21,9.9,16.27,14.47,24.62Z"/>
      <path d="M206.13,312.31l.04.08c.77,1.35.97,2.95.55,4.45-.87,3.16-1.74,6.33-2.62,9.49-3.95,14.25-8.05,28.45-12.13,42.66-.85,2.94-3.53,4.96-6.59,4.96h-11.42c-11.54,0-20.9-9.36-20.9-20.9h0c0-.12.02-.23.07-.34,2.24-5.24,4.79-10.35,7.2-15.52,2.6-5.58,5.18-11.16,7.75-16.75,1.33-2.9,2.67-5.81,4-8.72,2.37-5.17,7.84-8.16,13.47-7.38.47.07.95.13,1.42.2,3.29.46,6.57.93,9.86,1.41,3.92.57,7.35,2.92,9.3,6.36Z"/>
      <path d="M246.13,289.78c-.26-10.88-.61-21.76-1.07-32.64-.12-2.83,2.14-5.2,4.98-5.2h0c13.82,0,25.03,11.21,25.03,25.03v29.49c0,3.01-2.65,5.34-5.63,4.94-6.27-.85-12.54-1.77-18.79-2.74-2.4-.37-4.18-2.42-4.22-4.85-.08-4.68-.18-9.36-.29-14.04Z"/>
      <path d="M239.41,256.71c.61,14.43,1.03,28.87,1.31,43.31.01.59.02,1.17.03,1.76.05,2.79-2.44,4.94-5.19,4.5h-.05c-4.74-.77-9.49-1.52-14.23-2.25-2.65-.41-4.35-3.03-3.64-5.61,3.56-12.96,7.12-25.93,10.76-38.86.4-1.43.8-2.87,1.2-4.31.54-1.94,2.3-3.29,4.32-3.29h1c2.41,0,4.38,1.9,4.48,4.31,0,.15.01.3.02.45Z"/>
      <path d="M195.84,282.73c-1.36-2.39-2.72-4.78-4.08-7.17-1.05-1.85-1.15-4.09-.25-6.02,2.51-5.37,5.04-10.72,7.61-16.06v-.02c.45-.93,1.39-1.52,2.42-1.52h17.32c2.92,0,5.03,2.79,4.24,5.6-.76,2.71-1.52,5.42-2.28,8.13-3.2,11.47-6.35,22.95-9.5,34.43-.36,1.31-1.64,2.15-2.99,1.95l-.38-.06c-.82-.12-1.53-.61-1.94-1.33-3.39-5.98-6.77-11.96-10.17-17.94Z"/>
    </g>
  </g>
  <g>
    <g>
      <path class="st2" d="M-1461.32,1000.62c.04,5.35-7.01,7.32-9.75,2.73-3.46-5.8-6.91-11.61-10.3-17.46-5.27-9.08-10.48-18.19-15.66-27.31-.69-1.21-.87-2.64-.5-3.98l.02-.07c.71-2.57,3.23-4.2,5.87-3.79,8.49,1.33,16.97,2.69,25.45,4.04,2.52.4,4.38,2.55,4.42,5.1.2,13.58.34,27.16.44,40.75Z"/>
      <path class="st0" d="M-1453.88,1027.87c-.06-22.24-.17-44.48-.46-66.72-.03-2.36,2.06-4.17,4.39-3.81,9.91,1.53,19.82,2.98,29.76,4.27,1.9.25,3.33,1.86,3.33,3.78v40.42c0,16.7-13.54,30.24-30.24,30.24h-2.94c-1.38,0-2.66-.75-3.33-1.96v-.03c-.33-.56-.49-1.2-.5-1.84,0-1.45,0-2.9-.01-4.35Z"/>
      <path class="st0" d="M-1463.13,1031.67h0c-1.4,2.36-1.19,2.01-2.59,4.37h-51.27c-1.78,0-3.07-1.71-2.58-3.42,5.7-19.86,11.41-39.71,16.95-59.61.64-2.3,3.72-2.68,4.91-.61,5.12,8.96,10.28,17.91,15.5,26.82,6.34,10.82,13.05,21.45,19.08,32.46Z"/>
      <path class="st0" d="M-1507.72,954.8l.06.1c1.01,1.78,1.27,3.89.73,5.87-1.15,4.17-2.3,8.34-3.45,12.51-5.2,18.78-10.61,37.5-15.99,56.22-1.11,3.87-4.66,6.54-8.69,6.54h-15.05c-15.21,0-27.54-12.33-27.54-27.54h0c0-.15.03-.3.09-.44,2.96-6.91,6.32-13.65,9.49-20.46,3.43-7.35,6.82-14.71,10.21-22.08,1.76-3.83,3.52-7.66,5.27-11.49,3.12-6.81,10.33-10.76,17.75-9.73.62.09,1.25.17,1.87.26,4.33.6,8.66,1.22,12.99,1.86,5.16.76,9.69,3.85,12.26,8.38Z"/>
      <path class="st2" d="M-1454.99,925.1c-.35-14.34-.81-28.68-1.41-43.02-.16-3.74,2.82-6.85,6.56-6.85h0c18.22,0,32.99,14.77,32.99,32.99v38.87c0,3.96-3.49,7.04-7.42,6.51-8.27-1.12-16.52-2.34-24.77-3.61-3.16-.49-5.51-3.19-5.56-6.39-.11-6.17-.24-12.34-.39-18.51Z"/>
      <path class="st2" d="M-1463.86,881.51c.81,19.02,1.35,38.06,1.73,57.09.02.77.03,1.55.04,2.32.07,3.68-3.21,6.52-6.84,5.93h-.07c-6.25-1.02-12.5-2-18.76-2.97-3.49-.54-5.73-3.99-4.8-7.4,4.69-17.09,9.38-34.17,14.19-51.23.53-1.89,1.06-3.78,1.58-5.68.71-2.56,3.04-4.34,5.69-4.34h1.31c3.17,0,5.77,2.51,5.9,5.68,0,.2.02.39.02.59Z"/>
      <path class="st0" d="M-1521.28,915.81c-1.79-3.15-3.58-6.3-5.38-9.45-1.39-2.44-1.52-5.4-.33-7.94,3.31-7.07,6.65-14.13,10.03-21.17v-.02c.6-1.22,1.84-2,3.19-2h22.83c3.85,0,6.63,3.68,5.58,7.38-1.01,3.57-2.01,7.14-3.01,10.72-4.22,15.11-8.37,30.25-12.52,45.38-.47,1.73-2.16,2.83-3.94,2.57l-.5-.07c-1.08-.16-2.02-.81-2.56-1.76-4.46-7.88-8.92-15.77-13.4-23.64Z"/>
    </g>
    <g>
      <g>
        <path class="st0" d="M-1378.68,919.87v2.2h-8.34v4.11h11.2v2.18h-13.58v-14.76h13.58v2.18h-11.2v4.09h8.34Z"/>
        <path class="st0" d="M-1356.86,927.52c-1.22.76-2.72,1.13-4.48,1.13s-3.2-.32-4.58-.96c-1.38-.64-2.17-1.67-2.38-3.11l-.04-.27h2.38l.04.18c.16.7.68,1.2,1.56,1.51.87.31,1.8.47,2.78.47,1.1,0,2.06-.19,2.9-.57.84-.38,1.26-.99,1.26-1.83s-.44-1.43-1.31-1.72c-.87-.29-1.85-.43-2.93-.43-1.87,0-3.4-.27-4.59-.81-1.19-.54-1.79-1.63-1.79-3.28,0-1.54.58-2.68,1.74-3.41,1.16-.73,2.59-1.1,4.28-1.1s3.12.32,4.43.96c1.31.64,2.06,1.67,2.23,3.11l.04.24h-2.38l-.04-.16c-.15-.68-.64-1.18-1.47-1.5-.83-.32-1.71-.48-2.65-.48-.99,0-1.87.18-2.65.53s-1.16.93-1.16,1.71.4,1.32,1.2,1.59c.8.27,1.69.41,2.67.41,1.96,0,3.57.28,4.85.83,1.27.56,1.91,1.69,1.91,3.39,0,1.62-.61,2.8-1.83,3.56Z"/>
        <path class="st0" d="M-1334.06,920.87c-.71.8-1.7,1.2-2.98,1.2h-7.74v6.29h-2.38v-14.76h10.12c.86,0,1.59.19,2.2.58.61.39,1.07.9,1.38,1.55s.47,1.35.47,2.12c0,1.22-.36,2.22-1.07,3.02ZM-1337.04,919.87c.56,0,.98-.18,1.24-.54.27-.36.4-.85.4-1.46s-.14-1.07-.41-1.48c-.27-.41-.69-.61-1.23-.61h-7.74v4.09h7.74Z"/>
        <path class="st0" d="M-1315.28,928.36l-1.69-3.82h-6.98l-1.64,3.82h-2.53l6.42-14.87h2.33l6.67,14.87h-2.58ZM-1317.75,922.38l-2.78-6.2-2.6,6.2h5.38Z"/>
        <path class="st0" d="M-1300.14,929.23c.12-.33.19-.52.22-.58-1.42-.04-2.66-.43-3.7-1.16-1.04-.73-1.84-1.66-2.39-2.81-.55-1.15-.82-2.38-.82-3.68s.29-2.61.87-3.79c.58-1.18,1.41-2.12,2.5-2.83,1.09-.71,2.37-1.07,3.83-1.07,1.22,0,2.31.25,3.29.74s1.79,1.18,2.43,2.05c.64.87,1.09,1.86,1.34,2.97l.04.24h-2.6l-.04-.16c-.27-1.02-.81-1.87-1.62-2.53-.82-.67-1.76-1-2.85-1-.96,0-1.79.26-2.49.77-.7.51-1.23,1.17-1.6,1.99-.37.82-.56,1.68-.56,2.6s.18,1.76.54,2.58c.36.82.9,1.48,1.6,1.98.7.5,1.54.76,2.5.76,1.08,0,2.03-.33,2.85-.98.81-.65,1.36-1.5,1.62-2.53l.04-.16h2.6l-.04.24c-.37,1.6-1.12,2.93-2.23,3.98-1.12,1.05-2.51,1.64-4.17,1.78l-.09.31c.5.07.89.25,1.14.52.26.27.39.66.39,1.17,0,.61-.19,1.09-.58,1.44-.39.36-.89.53-1.51.53s-1.18-.16-1.58-.48c-.4-.32-.64-.78-.73-1.39l-.02-.13h1.07l.02.09c.09.28.23.48.42.6.19.12.45.18.78.18s.56-.06.76-.19.29-.32.29-.59c0-.33-.19-.54-.56-.64-.24-.03-.42-.04-.56-.04h-.73l.07-.13c.13-.34.21-.56.24-.64Z"/>
        <path class="st0" d="M-1284.44,917.21c.58-1.18,1.41-2.12,2.5-2.83,1.09-.71,2.37-1.07,3.83-1.07s2.77.36,3.87,1.07c1.1.71,1.93,1.65,2.51,2.82.58,1.17.87,2.44.87,3.8s-.29,2.61-.87,3.77c-.58,1.16-1.42,2.1-2.51,2.81-1.1.71-2.39,1.07-3.87,1.07s-2.75-.36-3.83-1.07c-1.09-.71-1.92-1.65-2.5-2.82-.58-1.17-.87-2.42-.87-3.76s.29-2.61.87-3.79ZM-1282.2,923.56c.37.82.9,1.48,1.6,1.98.7.5,1.53.76,2.49.76s1.8-.25,2.52-.74,1.27-1.15,1.65-1.97c.38-.81.57-1.67.57-2.58s-.19-1.81-.57-2.63c-.38-.82-.92-1.49-1.63-1.99-.71-.5-1.56-.76-2.53-.76s-1.8.25-2.5.76c-.7.5-1.24,1.17-1.6,1.99-.36.82-.54,1.69-.54,2.61s.18,1.76.56,2.58Z"/>
      </g>
      <g>
        <polygon class="st0" points="-1389.4 997.97 -1335.08 997.97 -1335.08 989.25 -1379.89 989.25 -1379.89 972.81 -1346.55 972.81 -1346.55 964.01 -1379.89 964.01 -1379.89 947.65 -1335.08 947.65 -1335.08 938.94 -1389.4 938.94 -1389.4 997.97"/>
        <path class="st0" d="M-1291.08,967.74c3.44-2.67,5.16-6.7,5.16-12.09,0-3.08-.64-5.9-1.91-8.45-1.27-2.55-3.13-4.56-5.56-6.05-2.43-1.48-5.33-2.22-8.71-2.22h-26.83v8.71h26.83c2.19,0,3.84.82,4.93,2.44,1.1,1.63,1.64,3.6,1.64,5.91,0,2.43-.53,4.37-1.6,5.82-1.07,1.45-2.73,2.18-4.98,2.18h-26.83v8.8h28.96c2.25,0,3.94.8,5.07,2.4,1.13,1.6,1.69,3.62,1.69,6.05s-.55,4.37-1.64,5.82c-1.1,1.45-2.8,2.18-5.11,2.18h-28.96v8.71h28.96c3.44,0,6.37-.76,8.8-2.27,2.43-1.51,4.28-3.54,5.56-6.09,1.27-2.55,1.91-5.36,1.91-8.45,0-2.61-.67-5.17-2-7.69-1.33-2.52-3.13-4.43-5.38-5.73Z"/>
        <polygon class="st0" points="-1267.5 989.25 -1227.49 947.12 -1227.49 938.94 -1279.59 938.94 -1279.59 947.65 -1240.83 947.65 -1280.74 989.79 -1280.74 997.97 -1226.43 997.97 -1226.43 989.25 -1267.5 989.25"/>
      </g>
    </g>
  </g>
  <g>
    <g>
      <path class="st1" d="M-538.62,1000.62c.04,5.35-7.01,7.32-9.75,2.73-3.46-5.8-6.91-11.61-10.3-17.46-5.27-9.08-10.48-18.19-15.66-27.31-.69-1.21-.87-2.64-.5-3.98l.02-.07c.71-2.57,3.23-4.2,5.87-3.79,8.49,1.33,16.97,2.69,25.45,4.04,2.52.4,4.38,2.55,4.42,5.1.2,13.58.34,27.16.44,40.75Z"/>
      <path class="st1" d="M-531.18,1027.87c-.06-22.24-.17-44.48-.46-66.72-.03-2.36,2.06-4.17,4.39-3.81,9.91,1.53,19.82,2.98,29.76,4.27,1.9.25,3.33,1.86,3.33,3.78v40.42c0,16.7-13.54,30.24-30.24,30.24h-2.94c-1.38,0-2.66-.75-3.33-1.96v-.03c-.33-.56-.49-1.2-.5-1.84,0-1.45,0-2.9-.01-4.35Z"/>
      <path class="st1" d="M-540.43,1031.67h0c-1.4,2.36-1.19,2.01-2.59,4.37h-51.27c-1.78,0-3.07-1.71-2.58-3.42,5.7-19.86,11.41-39.71,16.95-59.61.64-2.3,3.72-2.68,4.91-.61,5.12,8.96,10.28,17.91,15.5,26.82,6.34,10.82,13.05,21.45,19.08,32.46Z"/>
      <path class="st1" d="M-585.02,954.8l.06.1c1.01,1.78,1.27,3.89.73,5.87-1.15,4.17-2.3,8.34-3.45,12.51-5.2,18.78-10.61,37.5-15.99,56.22-1.11,3.87-4.66,6.54-8.69,6.54h-15.05c-15.21,0-27.54-12.33-27.54-27.54h0c0-.15.03-.3.09-.44,2.96-6.91,6.32-13.65,9.49-20.46,3.43-7.35,6.82-14.71,10.21-22.08,1.76-3.83,3.52-7.66,5.27-11.49,3.12-6.81,10.33-10.76,17.75-9.73.62.09,1.25.17,1.87.26,4.33.6,8.66,1.22,12.99,1.86,5.16.76,9.69,3.85,12.26,8.38Z"/>
      <path class="st1" d="M-532.29,925.1c-.35-14.34-.81-28.68-1.41-43.02-.16-3.74,2.82-6.85,6.56-6.85h0c18.22,0,32.99,14.77,32.99,32.99v38.87c0,3.96-3.49,7.04-7.42,6.51-8.27-1.12-16.52-2.34-24.77-3.61-3.16-.49-5.51-3.19-5.56-6.39-.11-6.17-.24-12.34-.39-18.51Z"/>
      <path class="st1" d="M-541.16,881.51c.81,19.02,1.35,38.06,1.73,57.09.02.77.03,1.55.04,2.32.07,3.68-3.21,6.52-6.84,5.93h-.07c-6.25-1.02-12.5-2-18.76-2.97-3.49-.54-5.73-3.99-4.8-7.4,4.69-17.09,9.38-34.17,14.19-51.23.53-1.89,1.06-3.78,1.58-5.68.71-2.56,3.04-4.34,5.69-4.34h1.31c3.17,0,5.77,2.51,5.9,5.68,0,.2.02.39.02.59Z"/>
      <path class="st1" d="M-598.58,915.81c-1.79-3.15-3.58-6.3-5.38-9.45-1.39-2.44-1.52-5.4-.33-7.94,3.31-7.07,6.65-14.13,10.03-21.17v-.02c.6-1.22,1.84-2,3.19-2h22.83c3.85,0,6.63,3.68,5.58,7.38-1.01,3.57-2.01,7.14-3.01,10.72-4.22,15.11-8.37,30.25-12.52,45.38-.47,1.73-2.16,2.83-3.94,2.57l-.5-.07c-1.08-.16-2.02-.81-2.56-1.76-4.46-7.88-8.92-15.77-13.4-23.64Z"/>
    </g>
    <g>
      <g>
        <path class="st1" d="M-455.98,919.87v2.2h-8.34v4.11h11.2v2.18h-13.58v-14.76h13.58v2.18h-11.2v4.09h8.34Z"/>
        <path class="st1" d="M-434.16,927.52c-1.22.76-2.72,1.13-4.48,1.13s-3.2-.32-4.58-.96c-1.38-.64-2.17-1.67-2.38-3.11l-.04-.27h2.38l.04.18c.16.7.68,1.2,1.56,1.51.87.31,1.8.47,2.78.47,1.1,0,2.06-.19,2.9-.57.84-.38,1.26-.99,1.26-1.83s-.44-1.43-1.31-1.72c-.87-.29-1.85-.43-2.93-.43-1.87,0-3.4-.27-4.59-.81-1.19-.54-1.79-1.63-1.79-3.28,0-1.54.58-2.68,1.74-3.41,1.16-.73,2.59-1.1,4.28-1.1s3.12.32,4.43.96c1.31.64,2.06,1.67,2.23,3.11l.04.24h-2.38l-.04-.16c-.15-.68-.64-1.18-1.47-1.5-.83-.32-1.71-.48-2.65-.48-.99,0-1.87.18-2.65.53s-1.16.93-1.16,1.71.4,1.32,1.2,1.59c.8.27,1.69.41,2.67.41,1.96,0,3.57.28,4.85.83,1.27.56,1.91,1.69,1.91,3.39,0,1.62-.61,2.8-1.83,3.56Z"/>
        <path class="st1" d="M-411.36,920.87c-.71.8-1.7,1.2-2.98,1.2h-7.74v6.29h-2.38v-14.76h10.12c.86,0,1.59.19,2.2.58.61.39,1.07.9,1.38,1.55s.47,1.35.47,2.12c0,1.22-.36,2.22-1.07,3.02ZM-414.34,919.87c.56,0,.98-.18,1.24-.54.27-.36.4-.85.4-1.46s-.14-1.07-.41-1.48c-.27-.41-.69-.61-1.23-.61h-7.74v4.09h7.74Z"/>
        <path class="st1" d="M-392.58,928.36l-1.69-3.82h-6.98l-1.64,3.82h-2.53l6.42-14.87h2.33l6.67,14.87h-2.58ZM-395.05,922.38l-2.78-6.2-2.6,6.2h5.38Z"/>
        <path class="st1" d="M-377.44,929.23c.12-.33.19-.52.22-.58-1.42-.04-2.66-.43-3.7-1.16-1.04-.73-1.84-1.66-2.39-2.81-.55-1.15-.82-2.38-.82-3.68s.29-2.61.87-3.79c.58-1.18,1.41-2.12,2.5-2.83,1.09-.71,2.37-1.07,3.83-1.07,1.22,0,2.31.25,3.29.74s1.79,1.18,2.43,2.05c.64.87,1.09,1.86,1.34,2.97l.04.24h-2.6l-.04-.16c-.27-1.02-.81-1.87-1.62-2.53-.82-.67-1.76-1-2.85-1-.96,0-1.79.26-2.49.77-.7.51-1.23,1.17-1.6,1.99-.37.82-.56,1.68-.56,2.6s.18,1.76.54,2.58c.36.82.9,1.48,1.6,1.98.7.5,1.54.76,2.5.76,1.08,0,2.03-.33,2.85-.98.81-.65,1.36-1.5,1.62-2.53l.04-.16h2.6l-.04.24c-.37,1.6-1.12,2.93-2.23,3.98-1.12,1.05-2.51,1.64-4.17,1.78l-.09.31c.5.07.89.25,1.14.52.26.27.39.66.39,1.17,0,.61-.19,1.09-.58,1.44-.39.36-.89.53-1.51.53s-1.18-.16-1.58-.48c-.4-.32-.64-.78-.73-1.39l-.02-.13h1.07l.02.09c.09.28.23.48.42.6.19.12.45.18.78.18s.56-.06.76-.19.29-.32.29-.59c0-.33-.19-.54-.56-.64-.24-.03-.42-.04-.56-.04h-.73l.07-.13c.13-.34.21-.56.24-.64Z"/>
        <path class="st1" d="M-361.74,917.21c.58-1.18,1.41-2.12,2.5-2.83,1.09-.71,2.37-1.07,3.83-1.07s2.77.36,3.87,1.07c1.1.71,1.93,1.65,2.51,2.82.58,1.17.87,2.44.87,3.8s-.29,2.61-.87,3.77c-.58,1.16-1.42,2.1-2.51,2.81-1.1.71-2.39,1.07-3.87,1.07s-2.75-.36-3.83-1.07c-1.09-.71-1.92-1.65-2.5-2.82-.58-1.17-.87-2.42-.87-3.76s.29-2.61.87-3.79ZM-359.5,923.56c.37.82.9,1.48,1.6,1.98.7.5,1.53.76,2.49.76s1.8-.25,2.52-.74,1.27-1.15,1.65-1.97c.38-.81.57-1.67.57-2.58s-.19-1.81-.57-2.63c-.38-.82-.92-1.49-1.63-1.99-.71-.5-1.56-.76-2.53-.76s-1.8.25-2.5.76c-.7.5-1.24,1.17-1.6,1.99-.36.82-.54,1.69-.54,2.61s.18,1.76.56,2.58Z"/>
      </g>
      <g>
        <polygon class="st1" points="-466.7 997.97 -412.38 997.97 -412.38 989.25 -457.19 989.25 -457.19 972.81 -423.85 972.81 -423.85 964.01 -457.19 964.01 -457.19 947.65 -412.38 947.65 -412.38 938.94 -466.7 938.94 -466.7 997.97"/>
        <path class="st1" d="M-368.38,967.74c3.44-2.67,5.16-6.7,5.16-12.09,0-3.08-.64-5.9-1.91-8.45-1.27-2.55-3.13-4.56-5.56-6.05-2.43-1.48-5.33-2.22-8.71-2.22h-26.83v8.71h26.83c2.19,0,3.84.82,4.93,2.44,1.1,1.63,1.64,3.6,1.64,5.91,0,2.43-.53,4.37-1.6,5.82-1.07,1.45-2.73,2.18-4.98,2.18h-26.83v8.8h28.96c2.25,0,3.94.8,5.07,2.4,1.13,1.6,1.69,3.62,1.69,6.05s-.55,4.37-1.64,5.82c-1.1,1.45-2.8,2.18-5.11,2.18h-28.96v8.71h28.96c3.44,0,6.37-.76,8.8-2.27,2.43-1.51,4.28-3.54,5.56-6.09,1.27-2.55,1.91-5.36,1.91-8.45,0-2.61-.67-5.17-2-7.69-1.33-2.52-3.13-4.43-5.38-5.73Z"/>
        <polygon class="st1" points="-344.8 989.25 -304.79 947.12 -304.79 938.94 -356.89 938.94 -356.89 947.65 -318.13 947.65 -358.04 989.79 -358.04 997.97 -303.73 997.97 -303.73 989.25 -344.8 989.25"/>
      </g>
    </g>
  </g>
  <g>
    <g>
      <path class="st0" d="M373.07,1000.62c.04,5.35-7.01,7.32-9.75,2.73-3.46-5.8-6.91-11.61-10.3-17.46-5.27-9.08-10.48-18.19-15.66-27.31-.69-1.21-.87-2.64-.5-3.98l.02-.07c.71-2.57,3.23-4.2,5.87-3.79,8.49,1.33,16.97,2.69,25.45,4.04,2.52.4,4.38,2.55,4.42,5.1.2,13.58.34,27.16.44,40.75Z"/>
      <path class="st0" d="M380.52,1027.87c-.06-22.24-.17-44.48-.46-66.72-.03-2.36,2.06-4.17,4.39-3.81,9.91,1.53,19.82,2.98,29.76,4.27,1.9.25,3.33,1.86,3.33,3.78v40.42c0,16.7-13.54,30.24-30.24,30.24h-2.94c-1.38,0-2.66-.75-3.33-1.96v-.03c-.33-.56-.49-1.2-.5-1.84,0-1.45,0-2.9-.01-4.35Z"/>
      <path class="st0" d="M371.27,1031.67h0c-1.4,2.36-1.19,2.01-2.59,4.37h-51.27c-1.78,0-3.07-1.71-2.58-3.42,5.7-19.86,11.41-39.71,16.95-59.61.64-2.3,3.72-2.68,4.91-.61,5.12,8.96,10.28,17.91,15.5,26.82,6.34,10.82,13.05,21.45,19.08,32.46Z"/>
      <path class="st0" d="M326.67,954.8l.06.1c1.01,1.78,1.27,3.89.73,5.87-1.15,4.17-2.3,8.34-3.45,12.51-5.2,18.78-10.61,37.5-15.99,56.22-1.11,3.87-4.66,6.54-8.69,6.54h-15.05c-15.21,0-27.54-12.33-27.54-27.54h0c0-.15.03-.3.09-.44,2.96-6.91,6.32-13.65,9.49-20.46,3.43-7.35,6.82-14.71,10.21-22.08,1.76-3.83,3.52-7.66,5.27-11.49,3.12-6.81,10.33-10.76,17.75-9.73.62.09,1.25.17,1.87.26,4.33.6,8.66,1.22,12.99,1.86,5.16.76,9.69,3.85,12.26,8.38Z"/>
      <path class="st0" d="M379.4,925.1c-.35-14.34-.81-28.68-1.41-43.02-.16-3.74,2.82-6.85,6.56-6.85h0c18.22,0,32.99,14.77,32.99,32.99v38.87c0,3.96-3.49,7.04-7.42,6.51-8.27-1.12-16.52-2.34-24.77-3.61-3.16-.49-5.51-3.19-5.56-6.39-.11-6.17-.24-12.34-.39-18.51Z"/>
      <path class="st0" d="M370.54,881.51c.81,19.02,1.35,38.06,1.73,57.09.02.77.03,1.55.04,2.32.07,3.68-3.21,6.52-6.84,5.93h-.07c-6.25-1.02-12.5-2-18.76-2.97-3.49-.54-5.73-3.99-4.8-7.4,4.69-17.09,9.38-34.17,14.19-51.23.53-1.89,1.06-3.78,1.58-5.68.71-2.56,3.04-4.34,5.69-4.34h1.31c3.17,0,5.77,2.51,5.9,5.68,0,.2.02.39.02.59Z"/>
      <path class="st0" d="M313.12,915.81c-1.79-3.15-3.58-6.3-5.38-9.45-1.39-2.44-1.52-5.4-.33-7.94,3.31-7.07,6.65-14.13,10.03-21.17v-.02c.6-1.22,1.84-2,3.19-2h22.83c3.85,0,6.63,3.68,5.58,7.38-1.01,3.57-2.01,7.14-3.01,10.72-4.22,15.11-8.37,30.25-12.52,45.38-.47,1.73-2.16,2.83-3.94,2.57l-.5-.07c-1.08-.16-2.02-.81-2.56-1.76-4.46-7.88-8.92-15.77-13.4-23.64Z"/>
    </g>
    <g>
      <g>
        <path class="st0" d="M455.72,919.87v2.2h-8.34v4.11h11.2v2.18h-13.58v-14.76h13.58v2.18h-11.2v4.09h8.34Z"/>
        <path class="st0" d="M477.54,927.52c-1.22.76-2.72,1.13-4.48,1.13s-3.2-.32-4.58-.96c-1.38-.64-2.17-1.67-2.38-3.11l-.04-.27h2.38l.04.18c.16.7.68,1.2,1.56,1.51.87.31,1.8.47,2.78.47,1.1,0,2.06-.19,2.9-.57.84-.38,1.26-.99,1.26-1.83s-.44-1.43-1.31-1.72c-.87-.29-1.85-.43-2.93-.43-1.87,0-3.4-.27-4.59-.81-1.19-.54-1.79-1.63-1.79-3.28,0-1.54.58-2.68,1.74-3.41,1.16-.73,2.59-1.1,4.28-1.1s3.12.32,4.43.96c1.31.64,2.06,1.67,2.23,3.11l.04.24h-2.38l-.04-.16c-.15-.68-.64-1.18-1.47-1.5-.83-.32-1.71-.48-2.65-.48-.99,0-1.87.18-2.65.53s-1.16.93-1.16,1.71.4,1.32,1.2,1.59c.8.27,1.69.41,2.67.41,1.96,0,3.57.28,4.85.83,1.27.56,1.91,1.69,1.91,3.39,0,1.62-.61,2.8-1.83,3.56Z"/>
        <path class="st0" d="M500.33,920.87c-.71.8-1.7,1.2-2.98,1.2h-7.74v6.29h-2.38v-14.76h10.12c.86,0,1.59.19,2.2.58.61.39,1.07.9,1.38,1.55s.47,1.35.47,2.12c0,1.22-.36,2.22-1.07,3.02ZM497.35,919.87c.56,0,.98-.18,1.24-.54.27-.36.4-.85.4-1.46s-.14-1.07-.41-1.48c-.27-.41-.69-.61-1.23-.61h-7.74v4.09h7.74Z"/>
        <path class="st0" d="M519.12,928.36l-1.69-3.82h-6.98l-1.64,3.82h-2.53l6.42-14.87h2.33l6.67,14.87h-2.58ZM516.65,922.38l-2.78-6.2-2.6,6.2h5.38Z"/>
        <path class="st0" d="M534.26,929.23c.12-.33.19-.52.22-.58-1.42-.04-2.66-.43-3.7-1.16-1.04-.73-1.84-1.66-2.39-2.81-.55-1.15-.82-2.38-.82-3.68s.29-2.61.87-3.79c.58-1.18,1.41-2.12,2.5-2.83,1.09-.71,2.37-1.07,3.83-1.07,1.22,0,2.31.25,3.29.74s1.79,1.18,2.43,2.05c.64.87,1.09,1.86,1.34,2.97l.04.24h-2.6l-.04-.16c-.27-1.02-.81-1.87-1.62-2.53-.82-.67-1.76-1-2.85-1-.96,0-1.79.26-2.49.77-.7.51-1.23,1.17-1.6,1.99-.37.82-.56,1.68-.56,2.6s.18,1.76.54,2.58c.36.82.9,1.48,1.6,1.98.7.5,1.54.76,2.5.76,1.08,0,2.03-.33,2.85-.98.81-.65,1.36-1.5,1.62-2.53l.04-.16h2.6l-.04.24c-.37,1.6-1.12,2.93-2.23,3.98-1.12,1.05-2.51,1.64-4.17,1.78l-.09.31c.5.07.89.25,1.14.52.26.27.39.66.39,1.17,0,.61-.19,1.09-.58,1.44-.39.36-.89.53-1.51.53s-1.18-.16-1.58-.48c-.4-.32-.64-.78-.73-1.39l-.02-.13h1.07l.02.09c.09.28.23.48.42.6.19.12.45.18.78.18s.56-.06.76-.19.29-.32.29-.59c0-.33-.19-.54-.56-.64-.24-.03-.42-.04-.56-.04h-.73l.07-.13c.13-.34.21-.56.24-.64Z"/>
        <path class="st0" d="M549.95,917.21c.58-1.18,1.41-2.12,2.5-2.83,1.09-.71,2.37-1.07,3.83-1.07s2.77.36,3.87,1.07c1.1.71,1.93,1.65,2.51,2.82.58,1.17.87,2.44.87,3.8s-.29,2.61-.87,3.77c-.58,1.16-1.42,2.1-2.51,2.81-1.1.71-2.39,1.07-3.87,1.07s-2.75-.36-3.83-1.07c-1.09-.71-1.92-1.65-2.5-2.82-.58-1.17-.87-2.42-.87-3.76s.29-2.61.87-3.79ZM552.2,923.56c.37.82.9,1.48,1.6,1.98.7.5,1.53.76,2.49.76s1.8-.25,2.52-.74,1.27-1.15,1.65-1.97c.38-.81.57-1.67.57-2.58s-.19-1.81-.57-2.63c-.38-.82-.92-1.49-1.63-1.99-.71-.5-1.56-.76-2.53-.76s-1.8.25-2.5.76c-.7.5-1.24,1.17-1.6,1.99-.36.82-.54,1.69-.54,2.61s.18,1.76.56,2.58Z"/>
      </g>
      <g>
        <polygon class="st0" points="445 997.97 499.32 997.97 499.32 989.25 454.51 989.25 454.51 972.81 487.85 972.81 487.85 964.01 454.51 964.01 454.51 947.65 499.32 947.65 499.32 938.94 445 938.94 445 997.97"/>
        <path class="st0" d="M543.32,967.74c3.44-2.67,5.16-6.7,5.16-12.09,0-3.08-.64-5.9-1.91-8.45-1.27-2.55-3.13-4.56-5.56-6.05-2.43-1.48-5.33-2.22-8.71-2.22h-26.83v8.71h26.83c2.19,0,3.84.82,4.93,2.44,1.1,1.63,1.64,3.6,1.64,5.91,0,2.43-.53,4.37-1.6,5.82-1.07,1.45-2.73,2.18-4.98,2.18h-26.83v8.8h28.96c2.25,0,3.94.8,5.07,2.4,1.13,1.6,1.69,3.62,1.69,6.05s-.55,4.37-1.64,5.82c-1.1,1.45-2.8,2.18-5.11,2.18h-28.96v8.71h28.96c3.44,0,6.37-.76,8.8-2.27,2.43-1.51,4.28-3.54,5.56-6.09,1.27-2.55,1.91-5.36,1.91-8.45,0-2.61-.67-5.17-2-7.69-1.33-2.52-3.13-4.43-5.38-5.73Z"/>
        <polygon class="st0" points="566.9 989.25 606.9 947.12 606.9 938.94 554.81 938.94 554.81 947.65 593.57 947.65 553.65 989.79 553.65 997.97 607.97 997.97 607.97 989.25 566.9 989.25"/>
      </g>
    </g>
  </g>
</svg>